<mxfile modified="2023-08-21T15:43:50.202Z" host="app.diagrams.net" agent="Mozilla/5.0 (Windows NT 10.0; Win64; x64) AppleWebKit/537.36 (KHTML, like Gecko) Chrome/115.0.0.0 Safari/537.36" etag="BEasNLQ83q4967cLVKuO" version="21.6.8" type="github">
  <diagram id="Ht1M8jgEwFfnCIfOTk4-" name="Page-1">
    <mxGraphModel dx="1434" dy="751" grid="1" gridSize="10" guides="1" tooltips="1" connect="1" arrows="1" fold="1" page="1" pageScale="1" pageWidth="1169" pageHeight="827" math="0" shadow="0">
      <root>
        <mxCell id="0" />
        <mxCell id="1" parent="0" />
        <mxCell id="UEzPUAAOIrF-is8g5C7q-206" value="AWS Cloud" style="points=[[0,0],[0.25,0],[0.5,0],[0.75,0],[1,0],[1,0.25],[1,0.5],[1,0.75],[1,1],[0.75,1],[0.5,1],[0.25,1],[0,1],[0,0.75],[0,0.5],[0,0.25]];outlineConnect=0;gradientColor=none;html=1;whiteSpace=wrap;fontSize=12;fontStyle=0;shape=mxgraph.aws4.group;grIcon=mxgraph.aws4.group_aws_cloud_alt;strokeColor=#232F3E;fillColor=#ffffff;verticalAlign=top;align=left;spacingLeft=30;fontColor=#232F3E;dashed=0;labelBackgroundColor=#ffffff;container=1;pointerEvents=0;collapsible=0;recursiveResize=0;" parent="1" vertex="1">
          <mxGeometry x="480" y="264" width="259.5" height="300" as="geometry" />
        </mxCell>
        <mxCell id="DrfM2PfAgeh7stGyztKA-1" value="" style="sketch=0;points=[[0,0,0],[0.25,0,0],[0.5,0,0],[0.75,0,0],[1,0,0],[0,1,0],[0.25,1,0],[0.5,1,0],[0.75,1,0],[1,1,0],[0,0.25,0],[0,0.5,0],[0,0.75,0],[1,0.25,0],[1,0.5,0],[1,0.75,0]];outlineConnect=0;fontColor=#232F3E;gradientColor=#60A337;gradientDirection=north;fillColor=#277116;strokeColor=#ffffff;dashed=0;verticalLabelPosition=bottom;verticalAlign=top;align=center;html=1;fontSize=12;fontStyle=0;aspect=fixed;shape=mxgraph.aws4.resourceIcon;resIcon=mxgraph.aws4.s3;" vertex="1" parent="UEzPUAAOIrF-is8g5C7q-206">
          <mxGeometry x="90.75" y="66" width="78" height="78" as="geometry" />
        </mxCell>
        <mxCell id="UEzPUAAOIrF-is8g5C7q-230" style="edgeStyle=orthogonalEdgeStyle;rounded=0;orthogonalLoop=1;jettySize=auto;html=1;startArrow=none;startFill=0;endArrow=open;endFill=0;strokeColor=#808080;strokeWidth=2;" parent="1" edge="1">
          <mxGeometry relative="1" as="geometry">
            <Array as="points">
              <mxPoint x="440" y="360" />
              <mxPoint x="440" y="360" />
            </Array>
            <mxPoint x="440" y="447" as="sourcePoint" />
            <mxPoint x="499.5" y="402.5" as="targetPoint" />
          </mxGeometry>
        </mxCell>
        <mxCell id="DrfM2PfAgeh7stGyztKA-5" value="Vertical Container" style="swimlane;whiteSpace=wrap;html=1;" vertex="1" parent="1">
          <mxGeometry x="200" y="240" width="240" height="376" as="geometry" />
        </mxCell>
        <mxCell id="DrfM2PfAgeh7stGyztKA-4" value="" style="shape=image;imageAspect=0;aspect=fixed;verticalLabelPosition=bottom;verticalAlign=top;image=data:image/png,iVBORw0KGgoAAAANSUhEUgAAAeAAAAHgCAYAAAB91L6VAAAABmJLR0QA/wD/AP+gvaeTAAAgAElEQVR4nOy9eZxcV3Xv+9vnnJq7qnqeJbVaUrfklmRb8oRng7HBg2xCRAJJgE8AgwPYliED3JcbJfnk3iSX+xhNQi6f98lL7k3yIAmxGRLAsc1kG+MJj5rHbvXcXV1znWm/P6o191B19j51alhffY4lS3XWXlV1+vzO2nvttQCCIAiCIAiCIAiCIAiCIAiCIAiCIAiCIAiCIAiCIAiCIAiCIAiCIAiCIAiCIAiCIAiCIAiCIAiC8ALmtQMEQVzMzvvu8+ljatOFf2/4FcU2gyxgZ61Xr+xawN69thf+EQQhDgkwQbjIwM17g1p8dlCxWA9TWCsDusCVDg7eBYZugHUACAA8CiAEsCaAxwCoZQyTABgHeBrAPDjmOMMcA5sHMMc4P8nBTnAV48w2RvcHJifxzW9abrxfgiBKhwSYIATZ8isP9dgGtnCwzYzxbgCDAFsP8PUAerz2bwlMAJMApsGxHwwHGGP7wKz93A4e2P/YX6a8dpAgGgESYIIokW133t9SYL4dTFF2gvPNjLFLODAMoNlr36TCMQeGlxnwss3xsqKwl7sX4m8+9dRe02vXCKKeIAEmiCUY2b2n1crjClvBDsb5TgA7AAx67ZeHFBjYYQ7+LDh/2lLsZw49+uU3AXCvHSOIWoUEmCAADN25ZxCafT04u04Bu56DbwH9fKwCmwf4c2DsZQ72Y8a1n9D0NUGUDt1giIZky10PbOIKu52D3QDgegC9XvtUB5jgeBEKfmxzPBXKa0+98oPPZbx2iiCqFRJgoiHY8isP9XCT3c2BWwF+E4BOr31qACyAvQyGx7ltf+fAzpanadsUQZyFBJioT/buVYZemN+pMHYnB24GcC0An8deNTonAfwQnD2WCeIHo9/8fM5rhwjCS0iAifph715lywvJq2xmvwtguxe3ARHVSRYMP2Cc/RtU/Tv7vvXIrNcOEUSlIQEmah02dM+e6xnn7wVwL6pz3y2xMpwBP7HB/7eusG8e+7cvJLx2iCAqAQkwUZMM73pwO5jyPhSFd63X/hCy4HmAfQfgf9+TbPke7T0m6hkSYKJmGNz9+3FfQX8vgA8DfKfX/hCuMwrwr2mm/+uvf+9/THjtDEHIhgSYqHbY0D17rlc4/zAHfhVA2GuHiIqjM/B/BVf+et+3P/8jr50hCFmQABNVSf/uPaEm3X4/53gIYJu99oeoGp7njP23A5fHH6UtTUStQwJMVBUjd/xut6mZHwf4xwC0e+0PUZ0wsDdszv+8N9X8j7ROTNQqJMBEVbDlrgc22Yx9Boy9D0DAa3+ImuEgZ/wPDzz6xW+A6lITNQYJMOEpw3d/Yj1XtP/KOH4TgOa1P27j8wfg8/vh9/vh8/vh8xUPTVOh+XxQGIOiqlA1H1SFgSnKeedzG7BsCxwctmXDtk2AA6Zpwlo8dN2EZekwDQOFQh6FfB6mWd9BIgN/iUP57P7HPv8fXvtCEKVCAkx4wuZ7HxqAzT7LwT+IOqpQpSgqIpEIgk1RBINhBEMBBAJB+AMBBIIhKAqTHKctYWyJv7JtE3pBh14oQNd15HJZ5HIZZNMZ5LNZWLYl0ykP4U/aKvv4wW994U2vPSGI1SABJirK0N2fameK+cfg7D7UcMSrqCoi0TiiTVGEwhEEIxGEQiH4g4HVf6g8EOCVXsTBYRR0ZLMZZNJpZNLp4p9TqVKNVRs6gL8oJJv/27Gn9ua9doYgloMEmKgII7v3+o1C4hMM+EPUWAN7pqhoisbQFIuhKRZHUySKYCQMhS3141OCYFWZAC+HbdlIp1NIp5NIJZPIJBeQy9VU+eaD4PjY/m9/4QmvHSGIpSABJlxneNeDuwD2OQCbvPalFDRfANF4M+ItrYg1xxGJRItTxyVRPwK8FIahI5VKIZWYRyKRQDaVgs2rejcQ5wz/L+P+B6hXMVFtkAATrrHlVx7qsS32ZXD+bq99WQlV86G5tR3xtjbE4y0IhcJgzKlK1rcAnzlv8TfLtpBaWMDCQgKJuTlkUslqnbQ+zBX2vgP/9vnnvHaEIE5DAky4ARva9eCHGdhfogqnmxWmINrcgua2NrS0tiMcbQI7/aNwRj1IgFc8b5nTTdNEciGBxPwc5mdnkc9X1ZS1wYA/2rej+S+oiAdRDZAAE1LZfO9DA9zG3wK4yWtfzkXVfGjt6ERrRxfiLS3wacvkf1VCgKVSaQEu7/R0JoO5mRnMTk8hm06KjSmPJzhXf+3At//njNeOEI0NCTAhjeFdD+4G2N+gSqJefyCIts4utHV0ItbcArZk0tQFkAA7Hna1E3L5POampzE1OY5sOi02vjiHLWbtOvTol9/w2hGicSEBJoTZefd94TTCXwTDh732RVVVdPb0oqOrF7EWB88BwvrpdApaonB7OAVd6njZXA6z01OYmphALptx6IswSc7x6we+/YV/98oBorEhASaE2Pyuh4dg8W9x8Eu884KhubUVXb1r0NbRAVVVz/wLL1cpSIBLO09QgM/924XEAiZOjWJmakrAL8dYnOFjBx79wtcrPTBBkAATjhm664G3MUX9JsBbvBjfF/Cjp3cNunvXIBAKLfOqSk8lkwA7Ha+g65g8dQqnxkZh6HrZngnAwfhD+x/94pcqOShBkAATjhje9dD9AL4ED6pZtbR2oHftWrS2twNQVnk1CbDAi5Y/zwUBPvNK28bs1BROnDyBTAXXihnw2X2PfeG/V2xAouEhASbKY/dudajQ/wUG/olKDsuYgs6eXvSvWYdINFbyeWVPQZ9zpmvnVYUACxp3UYDPvJxzzM3P4sTRI0ilKlZD40/3P/aF/1qpwYjGRl39JQRR5Oab92oB1f9/GMNvV2pMTdWwZmAAW7Zdhs6eXvj91KmwYWAMoVAI3T29iEWjyGTSMAzD7VFvat989fzs/p//3O2BCIIiYKIkdt53ny89GfnHSlW10jQVPf0D6Fu3Dn5/EE4jL4qAZVPBCPjC87iNiYlTOHbkqNtCbHGm7Drw6P/9PTcHIQgSYGJVRnbv9ZuFxDcA3OP2WIwp6O3vw7rBIWiBc6Ndpzf+MqnwPmDOOSyLw7JtcM5hc8DmfPHPHPwCc4wBDKz4O2MAOBgDVMagKgoUlUEFc/En20MBXsTQdRw7ehgT4xPgF35A8kgxxq7b9+jnX3VrAIIgASZWg23e9eA/cLBfd3ugjs5ODGwaRigSXeJfa1OATcsuHrYN0+Jn/t+2OSybnyMgEgWfA4rCoCoMmqJAVZXin1UFPlWBT1NRSk2SFcfzUIBPk1qYx8H9B5DOuLSPmOG4j/OrX3vsi5PuDEA0OiTAxIoM37Pnz8H577s5RiTShKEtI4i1tq/wqgpNQTsUYMO0oFs2DNOCadkwrOLvSwZoUqegnVXCUhXAp6nQVAV+TYVfU+HTlBKqhVVon26J3wO3LBw7chijo6OuRMMMeHzfY1+4bVVHCMIBJMDEsmy+58GPcs7+2i37KlOwbuNG9K8bBFNWywesHgE2LBu6aUE3LBRMC4ZpnSO0lV4DlluKUlMVBHxFQQ74NPg1BeeHy9UlwKdZmJ3Gvn37UCi4sX+YPbT/sc9/0QXDRINDAkwsSbHIhvIfcGmfb7ylFZtHtiEUaSrxDO8EWDctFAwLecNEwbBg2yvZdCrATpErwBfCGM6Iccivwe9bjJKrYAr6QnQ9jzdfew2JxEJ5Y63uTN5i9k6qG03IhgSYuIiR3XtazQJ/BUCfdOOMYd3gRgxs2FRac4QzVE6ADctGXjeQ103kDavMqc36EuALYQwI+lQEfRqCfg0+rdSdjJVZCrAtC0cO7sfYqfHyxludF5u6s9e88Dd/4/o+KKJxqHgVI6L6MQv4a7ggvv5AEFu2XYrWtpXWepdjabFuCvmwoTuOga44+tujiIXPZk4XdBOjc2mcmFrAoVMJTCeX7k1r2TbyhlUU3IIJy+Y498bPKvKcKlGVXXWXI2+YyOsmkAFUhSHo184cqrJaZTJ3UTUVm7ZsQSgUwpEjR2HLWxfekZqMfArAn8sySBAUARPnMXT3Q7/FGP5Ott2meAu2XXYFgkG/mCFejMJ2burC9Vv6sKmvBUqJkfSpuTSe2XcKP359FJm8gVzBRLZgoGBY59m/4A/lO+joJVW4X3ml85Y53e9TEQ74EPb7oGnninFlIuBzzxo/cRyHDh2WKcJJU9U2Hf7W56ZkGSQaGxJg4gxDd+3pYwp/HUBcpt327n5csnUbNE2FaKR3yZo2/Mq1m9DbWura8cUkszr+8cdv4ju/OHzxem49CHCVFOLwa4tiHPRBU8u81Uj5HjjGR0dx4MBBiSLM/3r/Y1+8X5IxosGhUpTEGdq3XPMIgKtk2WMA+tYPYcvICFRVbGoy6FfxwbdtxT3XbEQ0JBZFB3wqrtjYjWs39+KVY9NIZivaeadhsOzidHUqpyOvF5dOS9vqJAuGaCwGFcDcfEKWzctaNl/5L3P7n5uWZJBoYEiACQDA0F0PX8oYfwSSZkUYgDVDI9i4cSMUQYsdsTD23LMTm3rldj1sbgribZeuw7GJBZyak9V1h61+sKUOLPP3qx1LnLfsGBeeJ3CU+FZPH5ZtI6ebSOd1WJzDpypQVrowRP07czDEmpthGnkkk1K+Y4VB6Znd/+w3ZBgjGhsSYAIA0D581f8DxoZk2GKMYe3QVgyuXy8svj0tTdhz7060RZfr9yuGT1Nww9Y1ODWXxvGppCtjEGfhHNANC6mcDsOyoaoKNJcTtxhjaGlpRTq5gFwuL24PGG4fuuLvZw88JyusJhoUEmACQ3c/eD1jTFof1LVDI9gwuB6KgiUjklKPlkgQD927A80RdzsgKYzh6uEeHDg1j4n5LBg7W2u5/MP94LNeDtOykcnr0E0LPlWBpipLvM7pr/PPVRQFLS2tmBwfh2XbAlcLUDStFGb3P/u4qCGisfF2zwBRFSgMD8uy1dE/gMH1AwK1hov4FIaPvGM7WiJBKX6thqYq+P13X43u5nBFxiPOktdNTCYymFrIQDet1U9wSCAYxPDwsCxzvz1w897KXJxE3UIC3OBseNenOznYXTJsxdo6sWXzlpXX9krklu1rMdAZk+BV6TQFffjYHZdVdEziLHndxMR8GvPp3CrVxpzT3t2N7q5OKab88fn3yDBENC4kwA2Oalu/AcAnasfnD2LzyHb4fFoJU4MrH83hAN55xXpRlxxxxaZuXLmp21k+lCeHk2ny6j7SeQMT82nkCqb075cBGNy4CaroFA0AxvFBYSNEQ0MC3OAwzj8gbIMxrN+yDdGInESp2y5fh0DJJQ7l88Fbt6K4Gkl4hWVzzCSzmE1mZRbSAAAEQyH0re2XYIndMLJ7T6sEQ0SDQgLcwGy564FNAC4VtdPS1Ye+nk4pCUYBTcM1w72iLgmxrjOGkXXtAglAlfzlfTKVK8dihJ/TDUwm0jAtS+rMwcD69YuFYYTQrDy/XdQI0biQADcwXGVvFbWhqBoGNgxJqwG8faAdQb/3yfk3b1vrtQvEIpZlYzKRQU6X1wfB5/Ojq6db2A5n7A4J7hANCglwA2ODXSNqo717DVpi4TKim5V/jQw4adQgn6uHe6Aobq/f1uJRobXgC+N8Dswu5JDNG1KuMwaG/l4Z09D8Hdi92/snRqImIQFuYJiNq4XOB9C3bl3JzRBKYUO31DLUjolHAuhuiXjtBnEBc6kccrqc5KxoNIZYTPh6ax/Krdkqwx+i8SABblAGd/9+HAxCmyLDsRY0x5rKDKGw7BEMqGhtqp6tleu7mis4WulzCKserobAcl11csymcjAsW4qtzk7xLUmKwmnvGuEIEuAGRTP0YQh+/21dPdAEmyyci2iTBdl0xKkoRzXCOcd0MrvYt1mM1rY2cX+AEWEjREOiee0A4Q3MtruLYYBz2tvaLrbg0GTesM7vy1sFRII+VK5zj8StNq62I6w0S3/+tsUxn8qv8JBU2ocQizbB7w9A1wsO/QPAbRJgwhEUATconEFofpUpCmKxqBRf8oaFmYWs1LVkGbjdJIAQI6+byAoW62CMia8DK4wEmHAE3WEaFMVmQncdzeeH36etmr262i/L5phL5gEwFAz5lY9EyOmlZtyWebi9TFvSUaFsZuFj5feRK+jCn0VTrEnsQuFYu/Pu+2i9gigbEuAGhTMuJMChQEDK9OxcKn+m0tF8WmAa0AWqzR/iYmQsW0TCggIMsJQdEd9UTDQctAbcsCgBkcXCQDAguoSMbMGAbhYrHAHAfCaPvGEh6KuObZWn5tIo/xmjhBOqYo22KpwQhnMOy+LQVAcX4+Ip4Sbx7WbcxyvbOYSoCygCblQ4F5JP1ckN7wLSufMrG3EOHBibE7YrA920cGSc+q3XAqL9ff0+8ThEtcSWdIjGhAS4QeGKmAAriliUatt8yd6vr52YEbIri32jczCs6srKJpZGdDuSqkmYCFRAETBRNjQF3ahwsQVc0XZuprV01PLj18bw3hu2OJj6lctPXh8FczTHXoIYVFeyd4Vw703bnMPRBbP4ValMgaIwoR7EnNMUNFE+FAE3KIrgFDRTxG6oy7WYm17I4tXj00K2RcnkDTz75pinPhClIyKcAKAwJjyjA86rp4QbUTNQBNygcEVhEOizWtxO41yET28zWYp/fvogtg90OLYtynd/cRhZ3XQvaJOa/1Qr4XSZb7qct3V6f5dTFDiLoM+BV9smdqImoAi4URGMgN3kjROzeGbfKU/Gnl7I4VvPHPJkbIIgGguKgBsWxsRCMWcrpOdbWJ6/f+oNbB/oQCToExyldDgH/vbxV2FYlkBAVOnnmvrYTnQRZ95WKZ8nE7oalZqZRSDqDYqAGxUmGAEzd2/804kcvvydl5ZdK3aDx35+CD8/MF6x8QiCaGwoAm5QOOdMKIbly5xdosnTZQBX4sXDk/j7J97AB97mfqnd5w6O4x9+9KaEuL5OI9IzsPN+c5/VP8/TXRLL5vRboQCY8AgS4AZFAROKYSt10/ru80eQ1U3cd/t2qIKZ18vx+MvH8fUfvFLRaJuoIkiBCY8gAW5UOGdiNx6nsSI7c3apFp565STSOR0fv/NyhAPyLlmbc/zL0wfwzz89AA7u8X24VkSAn/dbNSCaBF0rnzxRf9AacIPCBTspVFqsnj84gd/726fwi4MTUuydmE7ij//haXzzp/vBq0lNiIpDAkx4BUXAjQpninAi1VJ3rnJMlnnnm17I4XP/+gtcsqYNv3r9MEbWtpVnAMDEfAb/8vQB/OSNUXCbr+BCDWczV6WiuOfUSnvKV4SfPl+uPwRRKiTADQpXuNAi8ErS5TZvnJzFn/zj0+hpieDqzb3Y3NeK9d0xNEcuLkaULZg4OZPE/tE5PH9oAvvH5qpq+pQgiMaFBLhR4WL7gBlbRoIlZkGvZngikcWjzx7Co4v/H/JraGkKIOjTYFgWkjkdicyFPX1LTZmtYZUuyfUajvBlUemEboK4ABLgBkUBF5uArsJCWjndRG7O9NoNgiCIkiABblA440xERIsR7BLnr6rqxReUkwVdouHaQWTqQBr183kuPZtSwud5+iOgRWDCIygLulERbEdINy2CIAgxSIAbFsF2hPUTQBEEQXgCTUE3KoKVKJc917UkLKdUYaS+5MNLrTzRVOjzLGMYhqW2IZX+ebIyxyMIWVAE3KAsV8q5dOiORRAEIQJFwA1KsRa0WNS1ZAS7qkl25r/ijQ9KwcVG8FVBnSZvlTFMzX1lBLEIRcANCueCa8CyHCGIKkCwMitBOIIi4EaFiRXicL6IWxzT71PRGru4ctVq55XrctlRPr/oD/KRanoJYyXZv/hFyWwBpmWXNmzF9KqEgRgoK5+oSUiAGxZvI2BFYQj5y7n8nApwmXgmwE7Hk3deOqc7tFX7kHwTXkAC3KgItiPkFVrBrTjsoj+USRVkMzt0obRJDSY0RvmsPpDjdoR1eQETtQStATcoXKmtdoQEQRD1BkXAjYqEdkbORLjKs3Y9C2Alfi4OTZXW1q8KIvwLEC5FCUrCIryBIuAGRRG+49MNiyAIQgSKgBsUzsCEghnmdB+vYARV9bpfBWvHTteA4ebH66Zlh/kIVX8tEfUORcCNimAzBqoFTdQTNANNeAFFwA2LYENfwVrQjim7sFUVRKSVpqS3fPGLSlsDdop7nydjFMwStQlFwI2KYCUs0W6GBFFN1OmmOqLKIQFuULhgqENT0ARBEGLQFHSDooAzkZ1Izqf9Kpt8LdpwonJIjMAclqKsKsopiLLkPqQS3t85L7HtKv88iLqEIuAGhYvOIdOMHVEnzKZyNfSgRtQTFAE3KoKLXmy5Avir3scqe6MTiPEdnlfC+6vSh5eySlG6TRk1uUW2T82mckhmCg7PJggxKAJuWAQjYMEkaoLwmvlMHguL4kuVsAgvoAi4YRHfhrSkAdfuY86aAJQdb5/xv1baEcr7wFlJJS247GGFYUuGwCs7OJPMIpmmyJfwFhJglxm4eW9QC81GFUWLqgpv5qpdFbcuzlkLuHMlSKUzGJ+aKvn1ChSoqoS3XrHSzi62B5TajrCIoihobWkWstEQcI6pRAbpvOG1JwRBAizKzrvvC2cR3syBYc7YJQDfDGAIHP1giAIJH6AC4LABwK6WWX+xG/7Y6BjGRsck+UKIEgyFcOcdtwvZKG0NeBHnUwsusFTkfrGDNueYmM8gV7hYfKviqZhoOEiAy4dt3PXwZRrsdwB4Rxq4Fmc+x3Pbq3jhGkEQS2HbHONzKeQNy2tXCOIMJMAlsvneh262OT4Ajncy2F20aYGoNsp75luiFGU5bQ3KfsB0uRTlCv6YFsep2RR0c3nxpSQswgtIgFdgZPeeVjNvfwSMfYTb2EA/ogRRW+imjfG5FAzT9toVgrgIEuAl2LrrwS4d+F2zwD8ExiizhagtnD4plrOhtmJTQKU4tLTjmbyOyUQaNmkvUaWQAJ/DwM17g8FY4g8M4PcYEPLaH4IgnDGXymEulSv9BJreIjyABHiRoXsefD/jiT/jQL/XvhCEE0Q1pKoqYZ2hhEpY5/jNOcfkfAapHO3xJaqfhhfgbXfe36Krgb8Gx3u89oUgCOdYlo1Tc2nk9fL3+FISFuEFDS3AG3c9fLkO+58BDHrtC0EQzikYFsZnUzAs2mZE1A4NK8Cbd+35AIf9V6C1XqJOOBPEOUyQKqsUpduUEZDOJrOwbFuksBtBeELDCfDO++7zpSdCX+LgH/PaF4IgnGNZHGOzSTAwtESDQrYEm4MRhCMaSoBHdu/1Zybm/wlg7/LaF4KQSbE7ZDkiskS4WE4pyrIp0/Aq0WymYODk1AJ000JzREx8CcIrGkaAR3b/TpNZSHwHYDd57QtBEM6ZWshgcj4tdcqZcrAIL2gIAe7fvSdkFvg/AyDxJYhlKK0OBzvvt9IRV0vdtDA6nUQqpwvbIohqoO4FeOd99/lSE/xRAG/32heCIMqHc2AqkcFUIgObMq2IOqLuBTg9Hv4qYyS+RAMgOo9aUiUOft5vbpPXTZyYTi7ZQlAmtA+Y8IK6FuDNdz/0ac7w4UqMpTCGUCiAeHMcsVgMsWgcTZEINL8PqqJA8/kAxqCpK3zkDm9qxahA7h2Rc77KGpuz8bjjCOb8G7/NbXDbOvNXy9ktdTTb5rAt+5wT+Ip2V/OTcw5rme47nPNF6/LQVFWqPa+xebGD0Wwy67UrJXFj/ytv/+ojuM1rP0ThxQszAQ6dMWQ4kOaAAYYTsHHQZ+LQLXuQ8NrPeqFuBXh414O7OPAXbo6hKgpammPo6+9HT3c34i1tUM7cCB3cYIXuySWcvORLBAWxYjgUfMcnuPi5SP3o5BkrpxdD+WvApZ+QyhUwOpVEoYZ698YCmQ2cY6fXfkiDnb2yGFD8HwaYPuCHX8EMOA5xhv0KwzO2iSduexAHvXO2dqlLAR66c88gwP8OgOKGfZ+mYmDdWgxuGERLWydNXxGEBDJ5HadmU8jkjYo/39FPcFm0g6GdAddwjg8wFfjBVzDKOJ6Agv+0FfzH7fdjymsna4G6E+Cd993ny0zwf+BAXLZtxhjWrunDpZdehqZobLVXOxgAqHxk6ZRl3t+q7lf5+2MX/aFCVPpzufj9McZKf5h0PrVwEbppYXwuXV73IqKqYEA/GN4PjvcrFuwffgXPMODvwjr+/tqHQV/sMtSdAKcnI38K8Ktl243Forhix+Xo7umjTYMEIQHDsjExl8ZsKut9GUn6mZaJAuA6DlyX8eOPHv8K/tbi+Prtn8RRrx2rNupKgIfu2XMrOP9d2XYHBwdwxc4rofl9sk2fjyc3Iac3nmWcdfs+VuZnVP+31SXeYUlv+uIPsrR2hOJYNsf0QhaT8xlYtu3+gISX9HLgswrDHzz+CP7FBD77jo/jkNdOVQt1I8Dbb/t0pADz65C47qsyBZfvvAybhjc3wI2cINzFtDimEhlML2RJeBsPhXPsVoG7H/8KHgHw32/9BGa9dsprXElS8oJC0PojcKyTZU9TVdx4y00Y2ryZZqcIQoC8buLY5AJePTaJifl0VYov/YxXjCAHPsWBA49/GR/ivLFjm7qIgDffs2cb5/whWfZ8moabbrkZXV1dqOi8MDvznwoi+f2taq6y70/2ftvVKeH9Sf0Ilnh/rr7l0p3P6wYmExnMpXIC+7+JOqWVM3z98Uew+/uP4CO3fxwnvXbIC+ohAmac878CIGWBVlEU3HhGfAmCKAeb25hNZnFgbBZvnJjBbDLnfYJVCVA7Qs+4XeF47fEv40NeO+IFNR8BD+968DcAXCfDFmMMb7nmavR0eyS+NXCjOssyN6xV72NV/iar3L2SKElLnG5DuvgD4hxIpPOYS+WQzBaoXjNRLjHO8PXHv4Lr52bw0ffsRcN026jpCHjjOz8ZAJQ/kWVv29YRrN8wKMscQdQ1ulHcv/v68SkcmZhHIpMn8SUcw4EPtrTjx08+gm6vfakUNR0Bq5p6P6z2vS4AACAASURBVMDXy7DV39eD7ZduX+JfJG/TWQmhWbAqWTt27f7r7P05r5joopAsadr776+UUpTpvIH5VA6JdL6mSkWuBiVhVQ1Xmxw//f6Xcdftn8Q+r51xm5qNgEd272kFwx/JsNXUFMFbrr2WfgoJ4gI4gEzewOhsCq8dn8a+kzOYTGTqSnyJqmODyvD0D7+Ka7x2xG1qNgI2dPtTDKxZ1I7CGK656ioEg6FlXrEYKVRCm92evauK54sKzig4OasSM6hVVqzkNKcLcRimjVRORzJbwEKmAH2Zrk4E4RYcaIGN//jBl3HrbZ/E81774xY1KcCb3/XxNm6xB2TY2rRpI3r6+mSYIoiaJK9byOR1HJ6Yx3wq35CCSw1VqpI4Y/jP//wS3v62B/Cc1864QU0KMLd8DwJoErUTCYdw+WWXS/BoKYo/0AXTgmHaMC0b9mqRCT/zn5JRyllEKLEdIYPAbPxyFSrZ6Y0e8tr8uXHTPLsdRZ6fSkl+ljde8TsqvyGGzTnyuoGcbiJTMJDJFVAwi4UxGlV8q4FY6zq097t1LyodyzRgmjlYeg6mkYehZ6FnE8hnp8G5JwVUYraC7zz+Jdx86wN4wwsH3KTmBHh41+9FAeMTMuYKd+7cAV/AL8Gr88kbFnK6Cd20ytsD6UCALzjZwUsqXYijyvsPe9YPWOL7WzRl2jYyeQPZwunDRF43Fq9JylY+F6/3Abd2DmFw27vFjLj4Fky9gEJ2Frn0JBZmjmB67JfIJE6A84o8sHVwBf/+vS/hijsewHQlBqwUNSfAgPHbAG8RtdLV1YF1AwMlRHqLL1jlfsUBZAsGMgUTts3PnFC5H+sqqMDkKqV9DxdS+UpYJbDk9+Dsy+HcRsGwkNdNFAwLBcNEvmAhWzAomm00XLzUNV8AWrwXkXgv2vsux4ZL3418NonkzEGMHf4R5sZfcVuM1/oUfOP5r+G2Kz4Kw82BKklNCfDO++7zpSf4wzJsXb5jh7QpzLxhIZnTF4WXICTBOUzLhmHZ0E0bpmUVxXZRaAu6Bd00lziv8q4SjUcwHENw7U50rt2JbHoWE0d/huNvfheWkXVryJvnDHwOwINuDVBpakqA0xPh9wBYK2pn7Zp+dHV0lvjq5bOgOYBkVkdOL94E5ei5i1nCVXFjFnx/FZtSkDMQ5xyWzWHZNmybw+IclsWLf7Y5bG7DtDgM04S5KLSGZcE0i8JLVAbKwRIj3NSGwW270L/prTix7/s4se97sC35Ba0Y8MAPH8ELb/84/k66cQ+oKQEGIBz9MkXBjh1ykh0WMgXkaT9kVWJZHKa9KGaLUaRl2bBsDs6LyUg2PyuEHMXfS1kDtm1+XsUnznFOh5+z9i3bXjoHoBJr8QThAf5gEzZe9m70brwRbz77vzA/+ab8QTi++oMv4pnbHsRB+cYrS80I8NDdD14JYIeonfXr1iEeF94+jEzBIPH1AGMxQiwYxexy3Vz8s1X8s2kVM85PC1/Za8CVSMIiqg8KgaUSburAjrf9AU4d/jH2P/93sC2py7YRqPjbb3wDN77nPajpm3DNCDBT2Cdl3Nu2br3E2c/aOWObto1MzlhlkrKyBSdKQmLyj3NWf3+mZSOnm8jrxWzynG4it5hUROvsRP1SXw8BjKno23gLYq0DePnJz6GQX5BnG7i2eQqfBvAX0ox6QE0I8NZdD3YZHO8RtdO/pg+tra3C/iSzBsU5ErBsvpg5biBXOC205jJrn/SJE3VMKYW4a5Ro23pcdcef4ZdPfQ7JuWPS7DLgj7//V/ju7ffjNWlGK0xNCLABvB9AQNTO1ktGHJzFzvtNNy3oll3ClFUVNoKvxNrjMm5Ylo1UzkA6ryOTL/5umJRkRFQH3muf9x64Q/F9BcIt2HHrf8FLT/w5FmYOyzIeUC08AuAmWQYrTS00Y2AAE27W3N7eju6uUjOflyedr5staK5SMCxML+RwdGIBrx6bwfOHJrFvdA6jMynMp/MkvgRxEawOj7No/jAuf9tnEO/YKOGzKsKBGx//Cn5dmsEKU/UR8PCuh28G7GFRO1tHRsDKqtt4mjPZPGfKSrr2rMrO/McB3k7RFgwLC5kCEukCkjmKbonaojpqQVeDD+6i+cK47OZP4YUf/gnSiXEpNjnwZ9/7Er51xwMoSDFYQao+AmawPyhqIxAMYc3afmFfMvklih40KLphYyqRxaHxBF46PIUXD0/h8MQCZlMU3RIEsTy+QByXv/Uz8AeiskwO+hg+LctYJalqAd525/0tHFw4+eqSS4ahqWLBvrG4p/R0y7bVD1b+sViRtrJH6b+yBRNjs2m8dnwWLx6ZxOGJBUwv5Gg7FkGIwl08qpBAuB2X3rQH0qJ+ht978mtol2OsclT1FHRBC7ybcQRFbDDGMLRxk7AvuULjRb8250hmC5hLFzCfzlMTdqJu8XwGuuazoMt3Pt65BcM734f9L/wfGQ7EDAMPA/isDGOVoqoFmHH+PtGrct26dYhEwiJewLY5CrqF8jqmOHj0FHqrctaOOQcSmQJmUznMpvIwqRwiQRCr4izU7h++AzPjr2D21KvCHjDgge//Fb5w+/2YEjZWIapWgIfu2tMHcOH08uEhCdGvblbrTI4UOAcWsgXMJEl0icbE63aERUR84IAtqfYy0wCmyrG12lAKwyVXfwRPf/t3YZnCOVQRxcQeAJ+R4FpFqFoBZgr/DQiuUUciEfT1dZ8zveSsBFbeMCszRcWBSmZBp/MGJubTmCHRJQiPEZyD5jaQ/6U0bwAGKGFAiQFqC6BKS5i6iECkE8NXvh9vPPO/xI0x3P+dr+Iv7/odzIsbc5+qFWAA7xU1MDQ0BMbE8sx00yoW6a8TTJtjNpXDZCKLZFZH1WZpEARRJpKjBDtbPMwJgAUBrQPQOl2JjnvW34zR/Y8jOXdU1FQ8aOEjAP5SgluuU5VZ0MO7HhwGcJmQEcawccN6YV9Otxp04ED5B2OupTsnMgXsG5vHcwcmcPBUYlF8CYIAqiAJSwouplLzHGCcAHIvA8ZYMeKWCFNUbLlGuN4SAIAzfOLJvVUdXJ6hKgUYUH5T1EJ3dzdiMbFpE5sXk69qFcvmmJjP4uUj03jtxCxmkrnz2ugRBFFPVGLjolUU4PzLgDEp1fto60b0DN4gw9Qasx13yjDkNtX4lMAA/j5RIxsHB4UnZHTDApjT9AwHQiekjWe9zBYMjM6mMb1AgksQtYPIHavC+5i4VYyI7QXAv6GYuCWBDZfuxviRn0LC0tgnATwq7pG7VF0EvOXuh68GMChigzEFAwNrhH1xPv3sDXPpPH55bBovHJ7CZCJL4ks0BEwRF56a/1mpfAWf4mEvAIXXAS6nCmQw0oW+TbfIMPXWx7+ES2QYcpOqE2AbXDj5ak1/L4IBseZJpm0v0xavuuAAppM5vHRkCq+fmKW1XaLhkKC/8F5/Rd+EVwrMAK4DhQMA5NwvB0buFU6eBcC4gg9KcMdVqkuA9+5VwPiviprZsGGD8GWVXyy8UdFLmaHkspWcA6fmMnj+4CT2jc5TlyaiYdFU8duYhAhYUEErOH1cEuWKcAEwTpZ/3hJHqKkbPYM3yngT7/vGN1CZDc0OqSoBHn4x8RYAvSI2NE3D2jV9wr7kqzT5yrRsHJ9O4ucHJ3B4YoHqMBMNj08Vv8fatlj0xhgXcoIpKsSiUA5wVv6xrE0HmNOAJWf77dotd8kw09c6gVtkGHKLakvCEo5+1w+sQ8DvX+ZfS3vK1U0bHFxwa4KDk/mZ/1yEzTnG57M4MZ2CbpLoEgQAKIxJiYANwZ8pFVzoXqooy92zSsVhBC976l0/DgRjEN0r3NS8Fi3dI5ifeF3IzuI09ONCRlykqiJgALtEDQxuEMrfAoCqiiotznFyJo1n90/g0HiCxJcgziHg16Ts4TUMsYRLxmyhpBNF80E4Aq7sgtkyfpiAOSnF1trhd4p8pKe55/v/AxEZhtygaiLgobsevhSwhdTT7/djTW+PsC+6YZ0Tv7LzfisdsUdLy+YYm83g5GyK+usSxDIE/XJuYYbgQ7ePmU0i56taSGh8MI6qqSZiTharZjGxqL6tdwf8oVbouTkRM00siDsAfFPIGZeomghYUex3idrYMLgeiiJaetL2fEvCbCqPFw5P4cjkAokvQaxAJOATtmGaNixLLAIO+wtCVX/8wbjQ+OBOHyDciIQ5YI4L21FUP/o33erwfZ3zDhnuETbiElUjwBy4V9TG+vUDq3ynbNUjv1h84+wBB9GvMxayOl44PI1Xj88i24D9hwmiHPyaCp8mfgvL5rPCNmL+jNA0py8Qg/DUr6NzXcKclbI3uGvddcI2GHDH81+D+JOaC1SFAA/v+kQvgO0iNgJ+P3p7uoT84BwoeLDGmjcsvH5yDi8dmUYqR/t4CaIUmkKiiUtFMum0sI0mf07ofF9AtNtQtT2w82ITB0HC8V40tYjl9XCgZc6AlH1NsqkKAWbwvR2Cj2Pr1q2DqqhgK/5a+VnQMC2AOw6eLzhW38sLACdn0vjFwUlML4j9ABNEI6EwhqgkAU4tJIRttITERNwXahNzwHEE7OJhzi365RwGJmUaGhISfN2gKgSYg79d1Mb6gbXCflQy+zmRLuAXh6ZweGKhrtodEkQliIT8UCSUwDIsC7n0gpCNsK+QDGt5x+erWgD+QBzeTEG7eXDAmhW20953pXBlLIbqXAeuBgFmHBB6xNE0Ff39vQ6i1LMHUIyAl41ky/619OVUMCy8emwGLx2dRoaqVxFE2TAGtDQFpdhKLiTBBROw1kSnnKsvgEh8zZkZMcdIqsUsHXMaojtCgpFWxDqGRT1Z98RXIWxENp5vQ9p070OXMhtCi7f9ff3waWJvpWBarram5wDGZtM4MpmEWQM1pgmiWmkKBaDKKAANYH5GvKXecNuJmMj5sbb1Z6MAp3Bd3IYrGICdBNRmISvdA9djYepNIRumjVsB7BcyIhnPBVi1cCsXvG7WrulHaSaWf5Vu2Fi68SBf7dRVSWZ1vEn1mglCGFVR0Cop+i3oOjILQntMAQCbWkaFHIq1bRD2AVyH0E3KTaw5YQFu69mBM9PaDmHA2wE8IuSIZDyfguYMwh2Y+wSLb3DAlQpTls1x4FQCzx+eIvElCAm0NAWlrP0CwNzMFLjgnv+AaqTXxcWyfZuaB4o3IaeHrS/WghawceEhEyspsE+5SCjahUizcJ7PLU/u9T7oPBevnWEArhUx0BSNork5KnTR6IYlvR3ZXLqAfaPzNddTmCCqlXDAh2hYTuazbdmYmRwXtjPScSytMO64ChZjCsKxNRCKXu2c2PlLIfV+yAErAajtji0wBrT3X4FM4riIIzG7A1cBeFrEiEw8jYA3veuhzQCcfysA1q3tLyPbCkseBctaPRmvRGxejHpfPjpN4ksQklAVBe3xsDR7c9NTsAzxPffX9r3aKXJ+rH0Imk/wffELC4l4nf28xGEmxM7nDG3dl4l9TgC4jeuFjUjEUwFWbHaNqI3+PqHuhQCK678ymE8X8My+CZycSVdBg2+CqA8UxtDVEpGWeMVtG5Pjo8J2fKqZ3tQ6KnQP7eg7vbYpcNj5C/6u2mCAnRHeExxt3QBFFZsBkbHkKRNv14A5hOuMdXd2Cl2+lmWDc77CaxZ/rVJQ48hkEi8dna6qTkoEUeswBnQ0hxHwyeurPjM9AUMX37ZzZc/+hMrEHt6bu0bEA0yeX2bGr1oOAIwDPCn0Pn2BMOLtW4Q+bwZct3ev97lPp/HUEQ4uFAFHY1FEImJdRAqCzQ5SOR3PHpjE0ckkRb0EIRHGgM7mCMISGi6cxjQKmDx5QoYp+7aB5/pEDCiqH9HWjWJecH0xA7oGsMQKngBAe/8OofM50HJ9J7YKOyIJz5Kwdt59XzgNbBax0d/be3bCpaSZl4tfZFr2Kpvg+Xm/ncvx6RQOTSzApkpWBCEVxoD2WFiq+ALA5MkTMC3xWao10anD7eGFTSI2OtdcDVUT3FJlp1Gd085LYJ8u1+nc3+bOS8TdsHEDgFeEDUnAswg4hdAIAKF5pa6uDiEfOOeO2v0VDAvPH57CgVMJEl+CkIyqKOhuaZLWbOE0+UwKMzPTUmzduekZ4eSTzrVvEXfEykB8DrtCB7cXM7ad09Q8AEUNCNlQGG4SMiAR76agGYRT2rq7OlHeRXA+psUXXSnhWFzOmE3l8cyBCcynq7T0G0HUMOGAD33tUQT9cifnbNvCiaOHhPf9AkDUnx0daTsq1H6QMQ3NXUIN4IrY4p2cKoqdEjpd1fyItQ8J2aimTGjPBJiBXS5yvqapaI2LVVcxyii+YXNg/1gCLx6ZdhQ1EwSxPJqqoCMelprtfC5TJ48hmxHv+wsA773kiYBo1cfOtVfDHxRsQVhL67+nscQEGADaegRjN4aex78KsR6HkvCyEIfQ419baysU9ZyfAgcPtqZtl1A+lSGrm3jl6AwWsjV2sRNEleP3qYiFAmgK+V0rZZxdmMPUpHjNZwCIB7LHtnUcGhC10zP4Ngiv3VoL4jYqjX36Ici53/F2odShRT9wFYAj4obE8FKAt4mc3NEhVL8DAGCU0BRhPlPAL4/NoKDT9iKCEEFhDIrC4NdUBP0awgEffJq7k3CWnsPxo4dgS9qi8GuX/GdY9EFB80fR0rMd4gKcErfhBXYOUJzP4De1rAdjKrhAeUvOcRWAf3JsQBKeCPDIHb/bbcIQ6iDS0dZ6/l+UmQVt2jY42IrnHZ1M4uD4PG0vqlEYA3yqCp+mQFMV+FTljAhoigJFYedFXcX1/tN/4fRLr/TFssR4Jbkg+P7KPr3yP0S2ZeL4of0oFOTUYW8LL7y5veOw2EZUAGuG3wlVMJEI3FqMJisswDKG41kAzgXYH4wi0jyA9Pxh5y4wXO34ZIl4IsCGqm9cuvNQ6bRdKMBlslJLQMuy8drJOUzMy1kzItxHVRj8PhUBTYVfU+H3qfCpCni5N3562KoPOMfkiSNIpjKyLBZ+57JHxW46ABhT0LPhNnFv7CQ8uVhlDGllAFVsB0tr9zYhAWbA5c9/Db4rPgpPu+R4IsAK2EbR77GlOX7+/t0yn/otiy/5CJDTTbx4ZAapHK33VjM+VUHQryHgK05n+tSqKW5DeA0H5iZOYmp6RprJnd37X+xqmhPeN9TedxXCUaH250WshLgNr7DFH4pEM6EBhGYtbAfwgrAzAngiwLbCNzGBJsD+gB/BoNgG9qUi4Ll0Hi8fnXWlNSEhBmNA0Kch7PchFCDBJZYnMTWKkydHpWw5AgCfYo3+5sgPr5Rha93W3RCex+VG7a7/AsXpc64DzPk0fLRFvIeyynE1GlGAGWdC9ddaW8S2HwHFNeBzOTGdwptjtN5bbYT8GiJBHyIBrdgHlr4fYgUSU2M4fvyENPEFgPdv/Q/Dp5rC98r2vqvQ3DGMhsx+vhA7C6jOg6hQtBtaIAqz4HxbE+e4wvHJkvAqC3q9yMktzfGLL78yrkdrsXoVY8U+1q+fnMPJmRrb0F7HaKqCaMiPpqAP2plIl5SXWJn5yVM4efy4VPEdiE88fXn3QaGe5WdsbZMQ/QKAPV/z+lsUYOdL6oqiobl9C2bGnhPx4lKRk2Xg1TyeUBm35nhcaHBrMfq1bY6Xj82Q+FYJ4YAP3c0RrGmPojkSOEd8CWIFeLHQxonjx6RtNwIAlVnHPrHzXySUqwLaei9Hc4dwAnUxg1iwnGN5uFSW0hZPcJVQF3rk+a9BbrHxMql8BLx3r4IXE0JZCPFY08Wb9kv6uSueZNtAXrfw/OFpSrbyGMaApqAf8UiA1nWJsuG2jdFjBzErMeFqEeOBK/9VD2pGk7gphg2XfQBSwlZzVo4dr+F5ABbKbwdw9r0Ld5ICAjMFXALgl6KGnFJxAd764nyHASY0bjgcFvJhIVfAswcmkdPFGkQTzlEYQzTkRzzih6qQ8BLloxfyOH5wPzIZ+TNYN/S/8sqG5rGdMmx1rbsRsTbhrF0AZn2s/57GzgKK83IQ4Vi/sAsqww40kgDnofaqEKulHAmHHa8Bz6byeHrfBImvRzAGREN+NEcCJLyEYxIzUzh57DCsEqrZlUtXZO7p92x5Qsq6L1M0rN/+Xhmmztl6VC8CnBMS4GCkTTgRC0ysJLIoFRdghdvdotdPJBxydN7UQhb7xxagUzMFTygKr5/WdgnHWKaJUyePYXZKTm3nC9FU6+Cnr/6n7bLqUq8b2Y2m5rUSLHHAlD7N7i2C68CMqYi2bsT8+EvOjXAINQUSpfICzFhn2dWJzkFVFQSCS+wfW8XkydkMjkwsAFi5ChYhn1BAQ1s0tLjGS9nMRPlwDkxPTmBy9Dgsy63ZK574zDX/OxjSdAnrvkAo2ouBkV+VYQqw5or7f13Dg6ia54XHjbdvFhNgBuFMLhEqLsAcENrEGwlHyv7Kjk+ncWzq7DTF6W1IhLuoCkNrNIimoNzG6kRjkUymMHHyKLJp8VZ2K2B89LJvT3VF5mUs1gIANl/1O9B8Qm2DF+GAOQcv27eviiMdtQEYAHN+f4i2Cu1oBYCOJ7+G9ls+Ck+mFyovwMyOi1TBCi4V/S43Fgf2nUpgKnE2bd+yKfqtBNGQH63RIBS3eswRdQ3nwPz8PKZOjSKfWXB7OGv35qfe2NZ5RNq+0K6BW9DaK6nOg7WwGP1W8c+S05jGzgOKcwGOxMSn960CtgD4ibAhB1R+GxKHUBekQKA0AeYc2DeWwNTC+XvmKPp1F5+qoD0eQtDnZadLohbhHMgVCkjMzSExPQk9V5H9+fyOjc8+e9Pal6+TZVALxLHpivskySUHTHfWu6sCOy+WiBXuFG5NCKWBBFiBEhNZA/b7V983bXPgtRNzmE8Xlvg3EmC3iIX9aG0KQrTTFdEYmJYN3bBQKOjIppNIzs9Cz6bA7YrVYue3rH3pyTsGn32rTKPDV9yPYKhl8f9Ey07OAdwUt1OtCK4Da/4w/OEOFDITzl0AJFRIcYYHa8BcqIxVcJX1RNPmeO34LBaySycs2BQBS0dVGDpiIYQCvqrNseIotpk0bQ7TtGAYOizLgmla4JZ1pm3h2evDxX7AS75E4gdXiX7ADs7jnMO2OEzTgGUUYBTysPQ8bEMXsOucW9a+9PK7N/9Iqvj2broT3YM34+JKQU6wAWtasvZWmZDzgqBLDPG2jZgSEGBw7xKxPJiC5kuUsSodv2/5KWjD4nj1xCxSy4gvUIyOCXmE/Bo64qGq2tNrc46CYSFf0JHNpJBNJ1HIZWDnc7DNPDjlATQ69m2Dv3hx18afSS3GH46twdDOD53fJlUEc6bYOajaRFMm3ETx4cv5/SPSPACc+KlzHxg2OT9ZDA+SsJhP5HLyaUuXLjMsG68cn0M6t3KqvsxC7Y1OcySAliaxtpAy4ADyuolMLo90Yg6Z5BzMXBq2cfESBNHo8Pyvb37itevXvipVfFUtiG03/hdofik7mIpJV/VSdnI17DygOK9uGBHfZ73myb3QbtmLildnqrgAs/KLf56Holx8QRomx6snVhdfgNaAZaAwhvZYCJGgd3XMbc6RLZhIpZJIzs1ATydg5TMQyS8g6hsGnvzYjsfGRtqPSm5DxzB89YOItg7KM2lOoGrXc2TDCwCcC3A4KtTbBwA0vQ1rABwVNVT2wJUekAGayGWlsPP127Q4Xjkxi/QK086EPDRVQVdzGH7NmynnnG4ilckhMT2JXHIKdqGSnWGIWsXHzIlPXfMNX390SnrCTd/wLvQMvhXSolU7DVgpefaqHa5D5L36wx0yvFiPRhBgDqaJPNmdu7ximIviW0Lke3Z8wikhv4bOeGjJWQg3sW2OhVwe8zNzyCYmYaYT4JzWcYnS6ArPv/bwNf/fcETLS5+yaeneiU07PgTGZD2Q2oAxLsFODYm3LdaRzh+IQVEDsC3nS04Kw4CQEw7xIglLE7k22GKyj7mYcFWO+BaHdz52IxMJ+tARC8lJ7iwRy7axkNExOzWB3MwoLCNfucGJesC6of+Vl9+z5Ymdbly30dbN2HrDZ6D5nNWmXxJjqvqLbjhihfcj+H4VxYdQUw8yC8cc20AxAq44lRdgJlZPTWHKGfFNlSm+hDOiIT/aY5VLtjItG4lMAXPTE8jNnaJpZqJsNMWa+djljxU2tx2X0lLwQgKhLmy98f9CICRUWfd87BxgzUNYfGtOuw2AcYg4Ho73kQCXAgc3RQo1mLaFN07OIelwzZcqI5ZHMdO59PKfIli2jfn0ovDOnoKtk/ASZWNt7Tj65ge3/ftIUNNd+Wn3BZpx6Vv/BJFYt0SrHDBOSTNVVaz6LfBiFCxQEzoc63N87qIL4s2FHeBBJSymi1wfE/NpxIPO1wxIf0unUuLLwZHM6pidnkV6+hisvFibMqIxCWuFgx/b8W/RwebxrW6NofqasPXG/4pY20a5ho0J4WSkqqWUG75tAIrze00oIvgwxCDzaapkvCjYK7Tini+YECmlJW2TfJ1TKfHN6SZmEikkJ45DT86i+h7fiWqHMZ68bf0vTty54ZmtCnPv+lG1MC657jNo65HWs6GInVycenZCndzPuNgW3EBAuONaj6gBJ3jRjlBo4dYWzH6tk8vVVSohvpZtYyaZR2LqFHIzo+B2xffAEzWOAp64ds2rY7s2/eySsFZwLeoFAM0fxbab/xRtPdvkGuZmcc9v3QQGTt+H6fwzMKbhU4WXq2JPPoKmWz6OinQAOU3NRcBctJZkvVznLhEL+10X30zewNTsPFLjh2HlM66ORdQfCrPn39L75sF7h3+0LaTpI26Pp/mbsf3mvWjt2S7ZMgeMMYDbaPgbE3cYl5lzgHESvoB4BTLbQhdQ9wLMdJFpRm6JRUrUn3Z5IkEf2qLuZTvbnGMulcXM+CjysyfFH6aIhiKkFY5d3//qwjs2/HxrQDWuqsSYgUgvtt70h2jpGJZv3JgolmFsdPEFFmtel4k5C+jHioCWtwAAIABJREFUAXD4JJQAtVX0ADgsbKgMvIiAkyInW5bY1qNKF5GoFYI+FR0xifsZL0A3LUzMLmDh1GGYmYRr4xD1hU+xjm5uPTFx+4afDw7EJwYqOXa4eQhbr/8DxNpcGNZKANaCfLu1SrlrwObcGfEFAM3nB1N84LaQPnSKnOwED0pR8gWRuMc0xARYpQj4Inyagq6WiGvLUIlMATPTk0iPHwEXfIAi6hsOJOKBzMEtbSdyb133QndfdGYIHuzRbO65CluufhCRuAu5OXYeMCYdnFjP964yuj5Zc4B+DOfOpCqKAp8/Aj0v8HDPIXFTd2l4kYQlFP7YpuAUNEXA56Ewhs54GG58LBwcs8kcpkePIT93CpThTCySBXhSY/Z00K8nu0Pz6eHWE8pIx9G+NbHJIcZwpVeOMUVD76ZfwYbLfwt+CeuKF8GN4rpvcTT59iuKRP/PJNeuYtOYAIyTS/6TPxASE2AmtMHGER5UwuIL4AKFOEzBKWiKgM+jIx5ypbGCzTkm5zKYG90PPTUn3X75sHnG7F/GfZmj6+PjiYGWcd+6+FRLUC10+lUzFNbyQabAD85jYPCDiyULVg6WQjF8qAG4L+wvhBh4EEAH4M3ey+XQ/DEMXvZR9A/fDkVx4dbILUAfq/8ev07hFsBW+NyNU+c8vFyMz++8oxIAwG4AAeZAQuTSsyUIMGNUExoAWpqCCAfkXwKmZWN8dgGJE/th5lPS7Zfqhl81frG57cTRWwdfUAejp0bAcB2Am71yiKhewvGNGLrqAbT3ys50Pg0HzFMA9DraciSb5baY8uKUszmz4tmaXzCHpREiYMbFpqBN0wS3LTDFeVthTVFgWI3dTScc0NAc8UP2tLBuWhibnENy9E3YhvPuJA6xWwKpX9687pfZa3pfG4z4828B8JZKO0HUDkzR0Np/I4Z2fMSd9d7TGOOA5XGFt6rX/WUmcvSjxYznVfCLCjAaQYAZn+ECU9CWbcO2DKgCAqwqDEaNTNq5gaYqrmQ853UTY+OTSI0dEN4uVg5+1Zze2b1/7J2DP9/QGkpeXrGBiZrGH+7G2pHfQP/GW6GJTl+uhDEBWGl4roDVNut34cfB+QWzAxZQOFzMGC8BzSe8hTImaqBcKi7AtqlOMFXsSjD1AlSBD1tVFNTMspkLdMTk9/TN6ybGxsaL4luhXr1Rf3b63qGf+q7sebNDYVxKV26i/mGKD619N2Dw0t9CvG3Q3cGMqTrYbuTSg8OFMnDufcMuAIUDxQ5RJaKqguUoOSrX8m2RigtwVMlMpCH2tGkYOkRqNalq1c/FuEZzJICg3/nswVIUDAtjp8aROrUfvAKL682BzNy9Qz+J7OzZ38Gq7rGeqGZC8Q1Ye8mvoWfwJmiay/dbcxqwE7TmWyqn63jbGSB/YLE5xZIvXPJvFVVMzjiDcEHpcqm4AL/w7b/JDu96aAEC8+2mLpagqjXoViS/pqI5IrfMpG5aODk2hvTYAdcrW0V8hdzuzU8GdvbsbyXhJcrBF2xD+5q3Ys2WexBrWefyaBwwT0e+8ncY1C0ci9WtjpwfDS/5wothithnzXgDCPAiExAQYEPPCw3uUxvvh4Kx4pYjmQ/jhmXj5Og40qMHXY18GTi/cc0r9t2bfhYKajWyO4ioCnyBFjT33oC+jW9Ha/cIFMXn8oh8scSkZ9n/tUt+P5bPhF4d4a1jjRABLzIBwHFxVT0n1vlCc2Hfa7UTDwek7ve1bBujo6eQGt3v6ppvf2za+I1LfuhbE5uSO29O1DWqL4Jo+6XoH7oX7f2Xuz/dDOCs+FZBwlUtwQ0g/VNAjQB+52vyimgEjEYRYM7HREIxPSeWzq8JflG1hk9VpE49cw5MTM1iYdS9hCvGbH7H4M/Z7YPP+dzs8UrUF6ovimj7pejecBs6+6+APxCt0MgWoJ8CuNjsnLd48NBgzQPpHxen65UhIVNMMALmDSPAYEdFzi4ItrBTGIOqMFgN0o2nLbY49Szp7U7NJTFz9A1w251M8o5wwvrt7d9T18SmXLFP1BeMKQhG16Gp9RJ0rL0Bbd0jCIRaKucAzxf3+XITFPmWQWEfkH3+bCckBpx/kyrzsxTvFV/x4hCeCDBXcEwkqNELeXBugTHns5I+VYHlkoBUEyG/hpDErOeFdAFTR96AbbqzFruzZz9+fcsTakireBEPosZQtTBC8Q1o7tqJ9r4r0Ny5GZrPvY5eS2JnitPOsCnbuVTsApB5erGb0blctDG4LLPcSUvD86lc8YJFvImALfsoBKaBLcuGrRegBpxvZ/JpKvJ1Xo2DMUjt75vXTYwdfsOV8pKM2fw9m59iN6x5Rbpton5Q1ACCTWsQaRlGW981aOkcRjjWC3b65r3UPdstXbTmz6nQROJbEuYUkPrR4jr5hYgtDYouh3GOirdq82gNWD0qOh9ayOcQFhBgNxoQVBvRkB8+Se/TtjlGjx1BIblyPVYnhLQC/9Cl32Wb205It03UPlqgGYFIH8KxQbT27kS8bQOamteWnvUqfaXJLhbYWFJESqBRtTr3KpB9Act/IWIfjC06o8kaJALuzcRPjMcSpsj4ej6LcLzNsQ+yhKlaURhDi8TEq4mpGaQn5Qtke3CBf2zno6w7Ug0dkwivYUyBFmiGL9iGYFM/4h3b0NSyHpF4H8LRbne6FJUDLxSnnLlBU86lYs0D6Z8Vo9+VYIIRsC28hNsYAvzUU3vN4V17TgLccaPtXCYl1D3ZX+d7geORgLRyk8lMHtPH3gSXHEoMxCb4x3Y8ypr8YtvKiNqCMQWKGoSihaH5Y9D8MQSbuhFpXo9wbC2C4VaEmroQDLcJNV2RjpVYnHJujORNYbgJZJ4H8m9i5fym0/cpwSxmSywvhaNRpqABcPBDDHAswPmsWCa0qihQFAa7DjOhVYUhFpaTUW/ZHGOH90nvbLSh5RTuv/zfmBeFNRQ1CC3QjEh8LSLxdQhG2qH5m6BpYShaAIoaOLumWOVYVqEi5T/FUMCYAjAFTPFDUQPQ/GH4fCGovjA0XwiqJrdCm1S4VYze7NPbH2vj2vAUfRTI/AywSskXOX39ij1sGYbYFjAGVLxdlWcCzIDXAbzd6fmFTBLFL875D4NfVZCvw0zoWDgAWdU2x8dGkV+YlmNskZGOo/wjl36HaYr7nz1jCnyhDjS1DKO19wrE2oYRifXDH4oJZdET1UAFhNBKLfahtSszXq3DdSDzHJDfh7JnCpiYHJm64EwaR8W7Zni4oML2i0zlFPIFcMsAE+iA4ffVXya0IjH6TaUzmDlxUIqt02xuO2l/ePt3FTfFlzEVwdgAmjsvQ/ua6xBvG0Yw0uraeEQdws3FZgrlBEWNLNB2UXSzL5b5mZ0DEysTahjCS1lJUQPl4l0EzPGmQFtg2JxDz2URaBIQ4DpMxIoGfVKiX5sDY4f3SS22Mdg8bn/0skcVn+pOroMv2I5w8zA6B25GR+9OhGPdWP6m2Mg3S2J5eLEqkzkPinpLRD9WjHpL7Nu7LMICLFiFTGmgCNiG8joT7Mmby6QRaHKeihXQ6msKkrHi9LMMZqYmkUvKy0zuisyZv7PjW5ob4usLtqG5+xp0rL0RbT3bK1sFiagf7P+/vTePsqS473w/mffe2qu6et/oplmaBjWLhBYkI1vCSEKbkTQz4mk8sn009hk9WRte3hufM/YbxtZoRt5Ai8c6GiNZljy2AMtAgxACBIgdGhp639dauqprv/uW8f64Vd3Vt++SmRG53Rufc7JuZkTk70bdzIxv/CJjyVY6WZ1dBk+Lb0OKw5B+Yb6J3g6Nfk8TDLmWu2Je7hWuYbWRB3xw219NbLn19knA9ViibGqOwdXu89ARj2EaBlboO7HYo6czQVzBWsfFksXp4+qanrviheJ/evO2hOoOV7FEHwMr38qqTb/K6ot/ycd5f+ugy+toYhUqQ2Ws+Y6d+jo2pjQDmZcg73RG4QblrNlRYypKZ+Qykg5sO3nA8+wD3u325GxK/vdKxE3yLfIeeKBbzbvfseFTlGU7NMxjGFb5s295MLG6d1qJvXmr9C2/hhUbb2btpnfTu+QihbYlCFs9TgtJY0QRSlPnhFf/YI0pTVbe8eaPonzaZENuxr5yKUdJcnpcAWp7m9ogWAE2xE6E4VqAM8k5hLAqQxxc0pmItYQAJ+ImXQrmfC7kC0wMHVGQowqfuurn5ualQ8rsmbEuBte+m/WbP8KqDTeEa5xo2NAVgtqIUuV9ZTmF7EiK1kdU5mzO7KgsOOEVptyrs2LB5axkizEYkTfijEAFWGDskLn1i6US5XyWeFevaxtdiZj/Df8eoMr7HT15VFnHq2tWHc3deNFuZZNRJ7qWs+rSW9mw5cP0DW5UZVbTLliFivBacnMIhBPVlQgBhZOVqSO9FN4FTPfTCgMU8/ICbFr48I+eT6ACbAjjddlqejadpF9SgKOOYUBfl1wPQoB8LsfUmBpvtTeRT//G1T9zf2Gq6Oxdx9orbmPTVbcS7+xTZVbT6ghRGRZjzYG10EtWe7x1EXnIH4Lsbgedq2rh8Dc25YqKgvwCMWJyos0EOD+3ZHen5JzQ2eQs/cvXuM5DzDSJx0xKZd+XglRGVyKuZNrJM0PHKwWWPNbvvPmhnp64msXJuwcu4aKrPs2GKz6IGZevaGgW06JiJEqVJmZr7tx6s636v8oiLCgcgeweKAxz9v2u1M/lsByR9IBzGek+JhO33YHv0/IFKsDHn7ojt+XW2/cB17i1kU5Kjj2j4gWnIizAfd3yolTK55k4PawgN/ArF70xtXnpqRUqbHUvuYyLr/lt1l92M4bEEpaaNkCUK83L5XTFkzuLFt6alGcq8zTn9teeMtLPPgRmX/Pva3AZM0np/lO+e78QdCcsAIPXERICPDszX8N135TcmYiRyvk+D7cSDAN6OuUv48T4sPR6mgDdifzUJ7Y8o0R8O7pXseFNn9biq6mPsOabmDOVcbyh63kWMqwU5I9A7jAURwjF72XEwbDRCatBVtNJ6WVSj8sacEPwAmzxGga/4fb0YqlEPpuis3uJ6yxE+T1wVyKOaRjIPEiWsDgzckpJfv7Dm57oUDHZRrxjgI1Xf4YNV3zIpvhqL6ctEFQmyhC5edGtfs2h74MLKE9XRDd/uLKOcRhEdzGxAWkTydkmSx02QcBh6Uy4IHABNgQvyUxJCZBJJqUEOMoTcqjwfucmz1AqyL/+WNkzc+TNqw9eJmvHMGKs3fxJNl71MYyg13/VBIsQ84Kbr4itlUP5GNRWpDR2TnRLXq61raDCE3NfdgNY5Sz5nFzPdtNA3dhLBwReuuVSgzs6B2YKgOtxNJm5aZaukpuMoTMRI1vwfT1maVQI8LSad7+l3772J0rmgBxc8042XfMpzFiIl6jTKMaqdJwSpcoEGaJYEV1R9WrIOPtHs4AoVZqTCyehMFJZOrH6d/Puy+VNmP1SdvIZ6eZnrHb1gI8/dUduy6/d/joG73BrI5OUn2UpigKciFd6cMtQKuaZnZH//S4ZGN1+0cD4O2XtdPas5fK3f4HObr9WL7Lm+xCU53uAC7SH5QFn+xdYlU0IKr+5Nf9Zb+y5fvd/AaIAhVPzonsCimeI9D0r2QSdnjstnQXTaFMBBsDgBZAR4BRWKY8psah3V0cMIjY+vyshf/lmzoyp6HxV+K03P3KxrBHDiHHpWz7HkuVbZE3VRhQrHXVE4ZyXFbb3YRrNYkSxsixicbzyWRqvjM8V0XIW6mLEISY3rj85I92BuRgb56SsETeEQ4DhFZmTLSHIpGbpG1zl2kZnPIZhqBoG6w/dCqaenJmU67wAsLpv8oUVXXPvkbUzuOatrLn0fdL5OR9rfjxoqk6hpZszNWHAgvJcZb7l0plzolueoaUribFBZFs5ZqclX6EJDtx0B4HUaEIhwKJsvGDE5G6yzMyUlACbhkEiFqNQis680F0dcpevXMxXhnHJIX5j6+PS7YRmrJPL3volYnFVM1eKSoFWnsPbAkwLuMYmIldZa7g8Pb/m8Mz8nNQz8+Nww9yM7NF9HpPtNmIxOyU5hbPBDslMuCYUAnzw4TuPbbn19gnA9fjR1MwU7uW3QndHdAQ4ETOJSc5+lZyZlu75HTPLr2xaMir97nft5R9hcOWbUPKgi/x8M52eAUnjAie3iyjPD4dKnRuPXE6dG5d8NjxVY8hUlPCoEhtf6tJ25SIVMpMUi5IdzgQ75Qy4JxQCDAgMnkXwcbcGUsk5rHIRM+Z+VqjuzjizGd9nI3NFh4Kxy8lp+dW3bli/5zAS7+8BzFgHG7f+Fko63JSTi5rttPC2HKIIlCsLK2DNi9r8UCW75y9+FSFKsLj1UZQrtqz8ot7Yi3pki2JVnA/lRcvexuZ8E7QbKqI9NyM/f4EheF3aiEvCIsBg8TSGewEuW2VyqVl6lrifhKkrEZ3xwB1xSbESguTMpGw2sh+//PkrZI2s3nQzvUuk+3DNNzkvrBHdsqVW6yAKlbmay6lKxUlk573G7CIPMncuXEnHowjeF2ErjlT9hPGllU5YEsxOHpPORgHekDbikvAIsGE8K3unpeempQTYwIjMcKTOuJwHXMxnyeflau/d8cKzPYnc+2VsGIbJxqs/I/9QWxmwZiNZvrYsVqYyCURp8tz7eCs1v5+smq/ZL1pVzXxE1U8YWyFta2r8uGwuhj/8JeSbAl0SGgFeO7fk9dGBmSTQ79ZGcmqClRs2S+WjpzMeCQGWbYLOpORXQX7b2gPSXaiXrb2e/uVXIFUQiRKUpuVsaNwhylCeOie0ZwV3MuLvPP2ijSsE8ZVSp1ulFHOzkq14gpfkDMgRGgF+6qk7Sltuvf154Ba3NlJzs4hyEUPiPXBvZ5xJ6aUlvcU0DOkOWAoEWLx342tuX+CcZd2W25B+6Ft9qEZd/K5wWJVJH4qjlUkgiqPzcwuHufeuxhk+PUdGh/QEHKnZIYTk60LD4DkpA5KERoABMHgG4V6Ay1aZ9NwUfUtXu85CzDTpTMTIF8PbG1p29iuAXEq6lnFwde/022UMmGaC5etvlMuFNT9HsPZ+FSMqnmxxdJHgjjWZ4lBfA41NEquQvV+mx+UnrxImz0sbkSBUAmwJ8YwpeVHmpiekBBgqXnC4BVi2oBNkMykpC30d6b3AJ2RsrLrkZuIdrt84VCgn0QW/CqzKYuyFU1A4CoUhF/MJh60VQt8XoSWxVtKAYHx0v2wuctPjvCZrRIZQCbAoWi+RiGWAHrc2klMTcKlcPnq7EkylguggYo+EpAdslUsUJFc/2rripPQLvjWXfmh+z2VBKUrzw0B0QescAcXTkD86L7jD/gyp8ZUwVQj0PXoWIwZxuSXDS/lp5mYlV3kyeOW2Owj0pg+VAB9+5Jv5Lbfe/jTwoaaJ65BJpyhkU3R0u59fNG6adHeEtzOWbBN0MZ+Xfndy9cqjy6UMAAMrr0WqYLIyslmog4+FpZ/lspWpLMSePwqF44uGbGm8J0yVAQi0QhBfCch1Ip2dOio/bbAV7PtfCJkAAwjDeMwQwrUAAySnxli+Xm6C776uRGgF2JTsgFWQHH4EcOngyHqZ83uWXExHl1wtGCtP5D0Lr8vl4ijkDkJu73yHqSZE/OfU2CXACkFidY3vd3bjTZ6Wf/9rCJ6QNiJJ6AQ4Vio/Zkl6eDMTp1m+Xm5d+J7OOKZpYFlhq7lCzJArJYsF6eb1zJLO9CYZAys3/Apypb0FFEHyt2hJimcguwdye+yJ7mJs3e4t2kKg8QET4rX66NgvZ4UocnrkgGxGsrF+npU1IkvoBHjfw9/Ys+XW20eAdW5tJGdnKeWzxDu7XefDNAwGujuYSYdvLKPsEKRySW7u1JhhnQGkpq4aXP1W5Mb+6ne/51GahOzuylYc8/jLfKyU6gpBa5FYCYb7YaIAqZljFPLSTsQvbvoMgRfuoRNgKo/cT4H/6NqAEMxNjbFs7SapjPR3J0IpwLJN0MWSXNN6Z6wo/fK1Z3CTnAHHPXRbkNIUZHfOi678spLRRVcIIkPiImkTZ0b2SNsQBo9JG1FAGAUYC35sSggwwNToEMvWXozMHRo3TXo7E6Tz4SrsDclmV6ssJ8Ad8YL0QOSuHslhCKJI9EofBYgCZPdB9g3IHUFPghFGdIWgdlx8fvyvDGVGTu6VtAFxwU+ljSgglAKc7TR+3psXaaDXrY1kcpZ8NkVnt9w408G+zvAJsOT5sj2ge+J5qTakju7lxBKS43+FRfsIsKj0XE6/Arn9ihYl0LQPIakQJFYhu+JZZvYUuax0A9zITZ9nL1+QNSOPgvXf1DN0751ZMH4ia2dmTHKhZqAjVvGCQ4Wk7sgKcNy0pCpufUvl5uuuLD8X3olSlGFlIPULGPs6THwXsrvmPX/h06bRKCSxMHDC/T05MbpbOhsCthlGOG7wUHrAAEKIbYbBJ2VsTI0Ns2rTZgzJesZgbwfpXHi8YENSgWXvPBM5Ae7p3yCZg4X/oEU94PI0pJ6H9PaAVgxaIBRl1CJa9Hq3A0ZCevEFRJnhE7vksyL4V2kjigitABdibOu0RA6MLrc2crksyclxBpavkcpLRzzGQE8Hc5lWmynIHaYhpEbRJzoH5YYPCav1hh8JAbkDkHoO8kcIn/iFgbD9Ji12D3pJYp30M5ueOUo6LTeFLjA7PcmTskZUEcomaIDj9981Y8D9snbODMsv2AywtLdTuvdxq2BICnBMdv5nxwWxEeINyOyCM38Lk9+H/GEX/58mGPx6FdACrww6pObtAWBseKeCjPBw0NNPLia0HjCAgH8CPiVjY256inx6js5euaWvTNNgeX8XZ2azUnZaAVkPON7Rh9wYYCF3fhgQxUqnquQv5pdT1GhkCZsIzz+jZhfEl0lZElaBoRPyvZ8F3CdtRCGhFuB459KflvIzE4DUnIXjIyfYsPka6fz0dSVIZYuhnaLSL2Q9YDPm+q3C4lwosBEAVgaSz1Xe8Vrp+ul8/fci+ltqQs58hSDhek6lsyQnD6mYfCOTCMn43wVC2wQNsOfeOwoG/EjWztToEIW8mon7Vy3pll6NKOoYQkj9ALF4J9LNtoE3HTvcRAHmnoTRv4C5xxqLL/jceimab7opVeOWzoulTZw+9Ya0DQEP3vR5pF8iqyTUHjAApvU9LPPzMiYsYTF+6igXXb5VPjumwcol3ZyeyYRynuhoIFuBWSzEIUcUKh2r5p5qLrphxtdb3caX6RaCaBBfBqbr6RwAsMpphk9Jz/2MYfJDaSOKCb0rt//+b7xqwEuydiZGT1HMq5lWsjMRY93SXhLx0P984cQwaXkPWORg9icw/N9g5uFoi28Y0S0E0UDB1JMz4wcol6XH/Y/Hx3lUOjOKCb8HDFiCvzEMbpCxISyL0eOH2LhF/l0wQCJusm5pL7OZAnOZApb04pTthEBqSIJhyJ3vJaIM6Zdg9qdQDlVrl8ZLdAtBjeC4kt7PIydel7aB4L6b7iB0nXciIcCJrsEflfLTfw6G1IDeydOnWL5uI739S5TkyzQNlvZ10t+dYDqVJxWiyTpCTavWVdLbYeYnlYk0QklIKy0a9YShQpBYDcQqLQQub71yYY7x08dc52wBEeMeaSMeEIk21D333lEQGN9TYWv4sHxX9mriMZOVS7pZv7yP/u4OzLB6Z6qQnMZNvmwIQRPz4i1/HE7fBZP/GGLxBZ/bbW1smpamY+O5fZe3yNjQ69J9bQw4/v7P8QspIx4RCQ8YoGyYfxsX1h8AHTJ20nPTTI2NsGy1fNf4ajriJisGuljW10mmUCSTL5EvlimV9Yo1FyJTSQlJJywrWXm/m3oRLShuCNtvFoJ7qlUweyC+XNKI4OSRV6SzIgT/HJa5n6uJjAAfeeCvT1156+3/W4BUj2iAocO76R9cRqJTxXjUCzFNg76uBH1dlUUcLEtQshY6azRAnP3TkOg72CqehQB/BFGqDCWaewJEaCbV0UgTtjI6wg96h+x875CePUEqKT9JjTDlh7J6RWQEGKBomF+LC+t3gE4ZO+VSieMHd7H5mrfhx01umgYddqaxtCnArYGsBxwQ+YMwdR8UR6siIlxYakJK2MoCu/e4CZ2bpL9t9MSr0jaAvR/4PAp6cXlDJN4BL3Dkgb8+BfyjClupqTNMnB5WYartCLxYWOgF7edWnqksCTj2zRriC8G/T9XvVzVeY/Pe61gLhtSbQsqlDEMn5JcepDKdcWiJlAcMUDbLX41Zsd8ApBfpHTq0i66ePvoGBhXkTGMbAZF5ByysSlPz7E8i1twcNhHWLQRtQ+dl0ibODO+gVJIeNWSVYuGbfGMxkfKAAQ7f/80jYNylwpawBMd2v0ohpxdY8BdZcfCrd/NJGP0aTN8PViF4pzZsmuqIoH+4lvgRw098GcTkhnkKUebYQem5lxAGj37ocxyXNuQhkRNggLwpvgqcUWGrVMxzbO8OLEt6ppU2wpAqxUTYC0FRgKl74fRfQGEo6NycT9Da1RJaFvSP1hI/Ym26rpA2kZw6TDolP5zPEPy9tBGPiaQAH7//rhkM4z+rspdJznBo58uUy6GbKKVFkfVOVdiosxVOVbzeuZ+DKNPShaUKgtaulrg8Qf9oin7E2ADEV7k/f55TR+WHHgFnpifk15P3mkgKMMCBjqF/MBA7VNnLzE5zdO/r2hP2g7Pr+YZoE2WYugdG/gcURhplPmSb5jyCvhwtcXlc/rNdm92fO79lU+OMDskvvCAMvnfbHYS+00ZkBZh77y1jGZ8HlClmamqcQzu3UyyG/rq1OYrFtzh6zuuNXKkZtMK0hOJ4R9CXw6/LE1+hZN3fU0eeU5AZhCm4W4Uhr4muAAP7H7rrBTD+WqXNzOwkh157kXxWr15TF+kHWQTu8FZasssw/WMY+VMonJT9pzRA8AqjKwQN8eRnNqDraumsFXIznDqmZOGFx973BQ7KG/KeSAswQLlY+hMBe1TazOdSHHz31nxiAAAgAElEQVTteabP1BrvqVFDwOpbmoHTd1ZWLRJ6qtDWJegKQBtUCLoug/iAtJmhoy8jFDyLAv5G2ohPRF6ADz/yzXxM8JuA0qWISqUix/fu4Pi+HZR1k3TIkBTf1Msw/CeQO0BbFZSaEBB0BUDxfR5fCl1XSpvJZ1McPyQ/9Ag4+P4vsE2FIT+IvAAD7Nt212vAn3lhe3r8NHteeprTJ49gyS8K3RLIPraVYUgBeL2iAGfuhjPfAStn478M06bReIHEPZlYCX3vpDI5vdz9feLQU1iWvA8lDL4T1oUXatESAgxw4PrB/w486IXtcrnE6LGD7HvlaSZGTmDp4UrRozAEw38GqeeDzolLgq4A6AqBZgGzMt639x1gyE+mmM3MMnRsu4J8MVcw+K4KQ37RMgLMHXdY0PFpofh98GIK+TynDu1l9ws/59SBnaRnp5S8s4gasjXMyqJQPnq+6Zdh9KtQbDS8SOOMoCsAukIQCIm1MPBe6L4SDDXycWzfk1iWgne/Bt/+6O8S5gW5LyByc0E34sCDf568/ONf/FjMir0EyC5GWZdyuczE6WEmTg8Tj8fpG1xO/+ByepcM0tndgxmTnqa6xZEtMM92Y27yNQWY+D4klQxtuDALmhARNhFuoRvE7K4MMercCLF+paanJ4YZOalksaKsMPkrFYb8pKUEGCpzRW+59fc/CdYjSC5baIdSqcTMxBgzE2MAGIZBoqODrt4+Eh1dxOMJME1isYTNGqP3BUkuNef5dzRHooAyoOmiyMXxyspF+RPe5MPtZTJ7lCzVdgEtVN5HHlHnXaawgDqvr4Sg7pQGokT9nvrl+nGiyLkbteoGEQ1eoxnxiujGl0NiDcS9WaymXLbY/8Y2VJR5Bnz3ls8xLp8rf2k5AQY48OBfP3nFx37vo4YQDwLdfn63EIJCPk8hn/fza6OF13WMzE4Y+1uw7Izl9tlzMrug6/IGCVpESVvk39B4x9DRF0jPKRnqWTYs7lRhyG9a5x1wFQcfuPNxwzD+Lwj/dGTtiRfve4HJe2D0r2yKbxgJ+l2qonerQWdbvyIONenkFEf2PqXK3D/c/CWOqDLmJy0rwAD7H7hzG4hPokU4ZKh6B7x4iFERxv4GZh5SYF9zjqCVU1cIWo1yqciuV+7BspQUyxkh+GMVhoKgpQUY4MCDX39QCD4OJIPOi2YxCj3f0iQM/VdIKRnIrwk1QSunrhDIcmTf46Rm1cwyKODbH/gikR3e0PICDHBw212PxDGuB+SX2dCAigV9pVqajUonLMOozOE8/N/m53IOSQmjaSOCVs5oVQjGh/dz8vCL7vN5PnOJBP9DlbEgaAsBBtjz4J2HE4j3CISyq6+RQfJdLwYkn4ehP6l4wE0JumDUlQGNHwR9b9e/12enjrH7lXtU/qdfu+mzTCgzGABtI8AAux/8+liic+l7EPx36o4H0DRDWkJUrAc8dR+MfYu6Qz40Gk0IqAhxNjXGjhf+CUsom873QMmK3rjfatpKgAH23HtH4cC2u/7YMsS70U3SgSAn4ALmHq8IsPYmNZrQk01PsP25H1IqqhuaaVh84cNfIvJjPdtOgBc49MDXX0p3Gm9BGN8A2m8+ySARLoVTFCu9nNM71OZHo9F4Qmr2NC8/fTf5rNLJf37wvi/xuEqDQdG2AgwwdO+d2QPb7vwyGDdg8LOg89NeOGxytnIw/QDkhyqnC3Fu0+9YNZrQMTt1ktee+wHFQlal2Tkh+COVBoOkJWfCcsqBB+/cDtyy5dYvXwvmH4P4d+i5fMJDeQamt0G5zkiyCzQ3YBG+4M7Rt5KmfRBCcOrocxzc9QQePIu/F+VhR9VoAV7EgQe/vhO47cqP3/5eyzL+wEB8CIgFna+Ww85czgsUTsPMwzbW7w0RjSoEZ712H9EVAo1P5LJJDu56hPGRvV6Yv+f9X4jWcoPN0AJcg/333/UU8NSmj98+2GUZtwnEbwI3BpytlsH2MOLCEMw8AhfMmKMFxBGhbiHQ17IVKJcthk+8zpE9P6NcVl9ZNuB4rMhnlRsOGC3ADTh+/10zwHeA72z+2JdvMIXx7zG4GcFW2rrkMLwvwXOHYfYx6q8Co4ksou5BMOgKgWsKhTynT+3gxOEXyWdnvPqaEvDrN/0enn1BUGgBtsmhB77+EvASwGWf+MNVMat4k2EZN2HwS8AV+LD0YcvQrAk2sxeSTzUR34WxxBqNJLpC4IhCocjczCgTp/dzemgnpULK0+8zBP/lfV/kBU+/JCC0ALvgyL/+5Tjwo/kN7rjD3Prq9EUljMsNw7jcMqyLEcYKQ4g+MPoxRB+YA4FmWiHLumfXSRloJMDpNyD5LPYKwhAUlufhT2GZTY8irPoTGsRM0/Yr9nMYYNQuDkzTxHBucN5sjOrBFqar/FXbTUgaqIVZ9zfwlYArBJYQWJaFZQnKlkUxnySTniQ9d4bZmTFmJ49TLvoztb4wuPv9X+DPffmyAAjB3dYC3HGHtQdOUtl+HnR2vOab3+I5YK3b8+u+A069YnNBhfB5BRXsVhrkCtXXX/gn0mm9tkhUMIwYhqm+qDXMBF49C8IqIkQJYQU4YaDgZ8sSfC64DHiPFmCNYwwvquWp7fZXM5J2nzQa/xCijCgrm4LxHOXITwTViJ1FwSff9llaeq5ZLcCaAKjS7+RLkH4lmKxoNJqwcdiM8eEPfwGl02eFkbaeCUsTEItnr0o+60J8tQes0bQor1sxbrz5cwwHnRE/0B6wxg1qmqCTL0P69UCz4A5dAdBolGOwIx7nA1FfYtAJWoA1/iNE5Z2v22Znu/2YPNNJGfEPW89tjSZ4DPhFrMDHbvp86431bYQWYI1zDPuTWdUkfxRSEhNs2O2EFTat046zRlONheDPYpN85aY72m+Ndi3AGt8RucPApqCz4T96sSaNZjFzQvA7H/gi9wadkaDQAqxxjCFklxOop0R2XUTtSmo0EWe7KPPrH/gyh4LOSJDoXtAa/6kr37XW9q233q/dtDKbRqNRzAyCL8UneFe7iy9oD1jjAiEQck5oVMTNi3zKiLv2/DWRpSTgfyWK/NdWXFTBLVqANRGkXYUoKhUXjeY8nhKC/+cDX2R70BkJG1qANb4j/F6QXqPR+IoB08B3SgZ/98HPczjo/IQVLcAa5xjaFdNoNBdgUVmy9Z5SgX/44O8zFXSGwo4WYI3/CAu55lRD8vxa9jQajQvmBPzMhIcKFj/58Jc4E3SGooQWYI0bJNUvbA60n/mx0wlLVwg0oUMAx4BdBuwBdpmwa2IV+2+7DQ+WemoPtABrfEda7lpenxr/QlddezNWuaVXaXOEZQmEpa4SVRYCYdmfqW18/CRnRvfLfOVOIfiKjAGVmIJpEScVs0iWyyTzCZIf/V2mg85XK6IFWOMYo8FIXnsIyemUJVckjriAD666OugsBEy4LmCxHJMTYMHpdp4Nqp3RAqzxn6BboIP8/lot0OHSkwgQ9A2k0ahBC7DGMZL+q6I26BaazCJsehLCn0ijaUW0AGvsYsxvCIFhd0Gi2gTtggZJ0N9vg7BlUVcINC2KFmBNLYxFnxfsBy7AukBuL3SFQNOiaAHWQG2hrS/C0hNxyJaougTUBEjYKgSayKIFuD2pJ7KNPN+zx0JgSGmg1k+N5ixWZVU61bPLaCKAFuD2wK7g2hJk2amcK3NBy5Y1ejILTTgwDCW6GaP2WpuaFkYLcGtST0xlBfjsO2CZzPmzGEPYyi5dIdDUZv55qifA1WGaFkILcOtQLbRuBbh5M3TgxUAUxSxs5WgUf8PWRHCeANsR4bDcRBpJtABHl0YCald8XYm0rAesy44wELZr0MYVAuFagKvjNBFDC3C0sCOeXojyecf2Z8mtw0KxIVXm6j4rrUXYrqV/FQJhT4DtirD2jiOEFuDw40Rg3cTZCTvvWN4DnpdwqfmgF/4oLCjb2AnTVOO7hi0WYLcirJuqI4YW4HDiVFhlhLlWeHXYecciVFKlsHxRYqrJT+OkSAzRr6zxjhoesFNv10kaTYjQAhwe3IqunXRO7VeHn3csZNugVfSCNoyQFifNMuUg02H7/3SFwBNqdMKS8Xa1ZxwhtAAHixORDY1HLO8Bt/Ozb4GVDjoTrYGqCoHRBUZMkTHn1PGAVXm8dsVZEwBagIPBK8GV9YjtCrDGLaVpmPlp0LnQnMWA/hshsdq9CTUPhLnImiqRdZpeP9o+owXYP1SJq6yNRunqxVWHSyGEhfNnvfprVbk/mvZGhe7Ine+gF7Qqj9euHY3HaAH2HllhVSXYzc6pF39BuLAk1c/Vo119UtBlhK4AaNQw/0rHzTtgr0RZC7FPaAH2Di+E12+PuF58CAg6G2Erl4L+PTRusfEO2Etx1UIcIFqA1RJmoVXlEUv3ghZKnmUtOOcTtvJRXx8HGNh7BxwmcdYoQAuwGoL2dlULdaO0C01mGk0DwlZGe3nLStuu5wFTIyxsm0YCLcByyAiiKXm+Kk/YyfmAqpmw6j27Nk2HdhywJpw0ullktUTuRrTZBO2V92tJnq+FWAItwO4IUmiDEOvz0ss/bc0KQ7s2/HjutbMfKLEB6FgPxnwLrRBQGIbybLD5Uo9ME7TMZjSIcyPOGgdoAXZGlEVXmUjLrwcsc/aCEb88YBEyDQ5VZtRjdsOS98PAe6DvBkisqJ2uNAWpV2DuaZh9DMpJf/OpEEkP2C9xdirGGhtoAbaHX8IbhHA7+f8qm+zjpUSBfRSiUBUnLVoh6FgPq/4jLPsEmD3N08eXweAtlc36/2B6G4z/HeRPqMmPj8xfUT8EWKa52XBpQ9MALcDNcSKMbgQ0Kt7ywm+h1wMOmlD9fJIVAiMGq/4TrP4cmJ3ubJhdsPyTFfEevxvG/hdYeYlMBYKJvx6tW0HGZjprUVpNHbQA18eNUDoRU5XCq8JWrf+55qafKM15uL0hEith013Q9zY1+TDisPqzlaklj38RCiMOTg7urnbRBK2q45Thwp5hMz11wjSL0AJ8ITIi56WnrFq0XW+SPg/qnkXVz7Tkv6WxT/eb4LL/Xf8drww9V8OW++Ho5yD1avP0AUvDvAA78YCNBnFuxNmuqC7Yb5bXZmk082gBPh87Iicb70ZIQyG8i7YWJUxlQwv/zJ2XwOV3V97jekVsCVz6HTj0acju8+571KGqCXqxODsRYxSlayS+ulm6Ci3AFZyKnh8irUJ4PRFuS3ouaBXPXwsLFBC+MkrR7x1b4r34nv2uvoqXvf/jUJrw/vtcMt+iVK8JWrbjlN3zsZGmmWfbTHxrxbU1WoDdi207e8pSqJmKUuMviq7ZxV+t9Hj2i8RKuPhrcOR3CG1537gJ2uBCIXMiwihKZ8ezrRVfL057w7S3ADsVMDdC7JenrFJ8m9qxpHtBK8AIPgsahyz9KCx5n//fO/BuWP5vYPK+OglkNUCJhthtgjZQ37Ts1rOVEV7tDdO+AiwjrKqFOAhPWVawpRANp6J0ZskdWrx9x4jDuj8I7vvX3g5TD4IoBJeHOrjshKWqaVnGs1UhvIuXdmk7EW5HAa4nPl4Lcet4ytIOQ9DPWdDfX00bVAiWfsTfpudqEqtg2cdg8t7g8lAHUbkBYvjr2brxXmUE1qwRVis8bA+np7SbANsV3iAE2muRlhXgs+dJT8Qh0+BkXLDTAoStzPHgt13x79XbdJyHT4VSgOdZeL788mydxqkSWDtpJRc8jQ7tIsB2hSjKAq1SpBumL1mUHP7+51EqSTQDLhQ9RjeIOZlsqKGV6gFnUVwhSKyG3reotemGnqsrXnhh+PxwQ64YLJeLUudb5fNED8Lv2aoU2EZhYauZKscMOgM+UEtUqoWlOsy0GdbMXr3z3YQ3izObxNmJX7zF6sXlCkjN81cqKJgmMD4ob0MFdhsM/drCSP+NhKOmYkD/u7jgR4v1Xhjm4Ecul+Xu57JFAfvPpZvnv1lZY6d8ky0L3YSF4abxlFb3gFV4sl54wCo8aLfn2IlvmCaXJ+voKlRRLBU5V4l3SWyA5orT8s/vhYRNhA2g99qgc3GOnmvPb4aOLQGzy6GR83/kYj4nlaVimSKVh8GroT4y4TIerNuw6ibosN3VymhlAfZCaGXEVIXoqgqXEulsXs4DLpbLIIpguJx8HyC+1EaisD23bVoh6Lw06Fyco+uyqmP5vOULUvVRsjlSnHvmnDQ5R1Vgm4lurTRhe5iV0KoCLCusQXjLYRPouvHZnJwAZ3MlRDGJ0SEhwLEBMDsjtupN2MoQnyoEiZX+fI8dEivOXYZYX2VaTInLIoDknNwsW8k0M/grsM3SNgpT5dXWEt3qNNU3aNgeIGlaUYAbCYoq8Q2LGAfiKU/PkbJ/OS5ECEE2M0VPh+RE/Im1kD8uZ6Ot8ak8s7O+r1+YvZVPIwZ970TqNQhQLBbIZyalbEzNXSDAYesQ5ZXANkvT8s3Rcndf+HAjirKCLZPGizCzTpib8Jpxh4aQnlg3nZYrtADovEjehsZ7hFwvYaWIAiAqvbIVdORLJycQQm7UzLERxqn/HDp5xt2WG27LKhXlotOtpWh1AZYVVzs3TDsItLk4/KU9jAshN1ZvbnoUZz1Pa2yJNfOdsTShppwOOgfnKKeg9zro3KTE3PTUkLSNl3YxgrcCa6ec86rs86JMbhla6Z+RvfAqbg63N5TbNIEIdDJNOZmR84LHxk6AkBpOXKH3WqSFXPmmOY/CyaBzcI7yHHRdocSUQDA2LLfUYS7P1MlxcngrsHbLLhUOidc2WfQZeVpFgKsvTlBbkB61mzA3NW4TMCZmGLVxXeqSyebJpUZkTFRIrIHOi+XtKCXoCkDIKgTZQ0Hn4BwKvfHU3DTppNRjwPg0R5B/jlUJbJCCave4Oi7StIIAe3Vx/diCFmi7D/oFAj00xulGF8UOZ84clTVRoe+tNocltSsBVwBSL/rwP9okp+ieA0aGdkvbODbCYbzzar0QWKcbTY5lbUeaVhBgUHfBVdpSsXlRy1XS5L19P9Il2YmjOxGWgmZoYtD/7vDMjqU5n/QOKCeDzkVlyFr+OCpaCHK5LMMnXpPO0gu7OIT7Z9mrMiSoMtKN7UgTdQF2cxM0S9voXD9vRjebbx71oy9yKleQG46Uy2WZPnMQJU2pZhf0vxfiqwJ3+MLQ6hsqrDxM/yToXEBmN7V7ZDu/wCePvYJVlpsBK51l4olXGMK9GLp95v0qw2RsOzk3skRdgMH+BfLjRpC9Ib3elHnUlgXHRziCJCeOvuogdZOC0YzDwC9D9+XN03qtskFXAMJWIRi/m2AXuREw97QSS7lchqHj26XtHBthJ2qeUb/KnGa2Gtl2cq7TtJElygLs9MI1Ok/mBgjqJvVja/jw7zjIASSZnBxhZkLdezkMA3rfXJl035SYacsWQatqhCoE2SMwFaAXnNkFxXFpMwI4uOcxrLLEil7z/OI1XidYj1XGlpNzVaWlQdpIEmUBBucXyc0FlbWj8kb28mF0vD38HEcsQRlJDuz7BcJS7KZ1XgSDt0BHO03WEbTKNqkQDP9PsDKK/2cbiCJMPaLE1PjwHsZH90vbSWU488AzZ/tRePUMO7HlJB/N4lSkdRoXSaIqwLUuhNs4VTeFVzepStGVOfeCbWyS3JEhpEuj5Ow4p4fle5RegNkJA++CgV/RE3YEQpUgF0bg+B/5n43J+6A8JW0mn51h766fKcgQvHGQF61Ki7xKQcWDtDRI2yjOS7FtGSGOBZ0Blyz84NXDY4yIx4XdzgXnlgWZX7qGNze7YM2YnjzF6nVXkUg4XRrOBrG+yio4ZheUZ1AyAYjGHbmDld7qvdK3jD2SL8LcU9JmyqU8r730I3JZ+d7c5TKFr3yPH86kLljUpLrZQCiIU2UnKnGRQnvA4Yrzsvbppmba9NyfPs/JyVnGkKRUyrP3jUcQlkcddQwDui+DpR+E3mvA7EDZ+1WNM4a+AtNqmoQbktkLUw9ImxHCYu8bD0mverTAzsM8d3z07BKEQT3bYY2rlc5JXKSIogdsVG1uPL0gvd4wedxKvOhVSzGuuoTNjS9bc3LZWQxiLF2xQdZUfQyzsiRd12VgdlemJgzTYgG2iWyZAwiYeRTiy+anEvWA1EswcQ/SPa+F4Oj+xxg6KTfl5ALlMoU//Tu+P51koRdXmLxHr+P8th96oi7AQQmgFulF+/tPMvmx93B9PEai8aVrzvTUKXp6V9A3ILlUYTOMGCSWQ9flEB8AkQumg1DL4LRCIGD2SSgMw8CNYEjfOvNmCzB1P8w+jnR5LARH9z/KsSM7lWQN4I2DPHPPE+xa+IbF31b97S7iWk1A3cZFhigLcJTFN+oCfl66QhGxZjli8wYubXzp7HFm/AjLVmyiq7tfhbnGGAbEl0DXJfM9po35WZuCHLPaRmT3wuSPIb4cerbgXMgXEJB+A8a/D3kFw9qE4Mi+n3Ls6K7maW1SLJH/07/jh9PJ8979+ilOURBQFekiQ1QFuNHYuUaCUi+dChtOhC3s4uvYxusHGPvojWzt7KC74dWzg7A4M3aEZSsupbPLx8XczS7oWAvdV8zPLS3AShPRZzs6WKmKx5p8pVIZ6liLbY/YykH6NZi4tzLntKju1+QcUS5yaM+DnDiuptl5gade45Ftz3Bw4WsWf2V1FmzsR8FGkPmNBFEVYLtC6qXgBvldoasglMpgCWbfdhVvanj1bGKVi4yNHGBg2cV0d/W6N2S4OMEwK83SnRvmm6iXVMK1GKvFiEPneui5CnrfComlkDsCc89Adj+UxqE8DeUMWFmw5qBwGvKHIf16RbSntkF2T0XEFVDMp3l9+32MjZ5QYm+BsUmO/uE3+BchbAlNGAUuat8VCeJBZ0Axdotbx8WyD9/VKF0kvuu+Jzj80Rs5tX4VSnpRlUoZ3nj5Hq57+ydZtmy1OyOOH8mqE4wEdGysbKIMxbHKVjjtboEBNxWCViK2BDpWQ2I1JFaBUcsHKFfWEPZ5HeFsapzXt99POjWj1G65TOmb9/JjBx38DezduY3SqbDhJl1YvisStIIH7OVm1+Nt1c3x/398lJGb38a1pqnm3hJWidMje+noWkr/khXBypFhQqx/vpl6c+W9cWywIiIiVxHoqOF1hcDsho710L0F+q6HniuhY03ldzRMp1/uGROnd7Pj5fvJ59R3xHt6B4/+88/YM38YJQ8zjHlyYiP0tKsA27Wj6vui+l2O83R6ktxAP4WrNqnpkAWAsJgYO0CpLFi2fAOGEagMn8NIVCaV6LwIuq+sCE2sDwyj8m6yHTtymb3QsQ66NleGGPVcU/ld4oNg2Ghw87pCUEWpmOPg3sc4uO85LA/GoI9OcPSPvsW/li0E0Re0qH1X6Gm1JmiB7BNp30ajdIvj7KYL8rvc2KhOd/b42//Ca9ddzqWXrlcowsCpoy+QnB1l63Uforu7T6VpNcQHK1v3FsCC0iwUJ6A0BaVJKKt5TxkajPj8/7ys0mktsRJMyU5zsq8MHDA9cZA9O58gl/XmuiQzTP2Xb/OPhVLNmlijjNsVFbv/fBi/y60NN+lCS0hcCUcYRLi3cIvbOHu8YRV9f/Of+Ux3p4Je0VXE4p1cefX7WbPuStw7wwHc+qIApZmKMJcXPucI/9SYBsR6KvNpx5ZUPhNL5+fXjl4RUsjNcmjfE4yOSK+mWZdiifyf3c3fvrCL01SEwpr/rN53G6dt1N+PDNF7eqIrTlEf++s47iM3sulLn+LfmgaevOxbtfYqtmy9ic5OH4cqeYGVrXToKqfOfVrZysQglvywGlsYsYr3GuutNCPHeueP+ytCW7OzVLQQ5RzDJ17m0MHtlMveva8XAuu72/jBP/+M/QQrSlG379ZGZIiyALeagIb1u53EXZD2//43vPnf/irvq3MtpYnFu7j8yl9m/YZrMc0o3s5NENa8GOdA5CuCvLC/4Dk3nUrTBCMORsf8Z7wy5tnsArOz8ml0VJ3TOr+lEGUmR1/n4P4XyGSznn/foy/y8F/+kOfwV/CiKLBe2NcC7APtKnBhirOd9k8/y03vuoa31rmWSuhbspYrt97M4NI1Xn6NJjBcFFWizMyZPRza/yKzyVn1WarBk9t57Kt/z5OoEZKwiG1YRbpWXKSIcrvSQkFf67jWfqO4ZjbCHIeiuFpp68U5SvvMG5x851ZWLVvCMjyikE8xcmonszMn6etbSmeXXv+3XRFWganTr7L7tW0cO76PfMGfZvzHX+bR//l9nl7IBue8sWrvrNpTk00b1rha6fyIiwxRFWAnQlUrXVTjZNPWi5NJ2/TYsuDp1zjyjqtZvbSfpXhINjPH8MndZFIT9PYtpaNTYhYtTaQQpTQTI6+za8fDnDx5mHzBt1WuxKMv8tO/+AHPcL6A2hHWWgKmIi0N0jqNI0JxkSKqAgza65QRRaUCa+e4UMJ64mUOvX0rq5YNeCvCAKnUJEMn3iA1c4runj46uwe9/kpNIAiKmZMMHX6aXW88zvDIcQpF/5aXFAJr2zM8dNc/8SLuRTfsgh0mr7pRXOSIsgAv4LcQakF1fgxglMqIx1/i0Du2stLL5ujFpDNzDJ/ay/TkMRLxBN09yzAMs3YONZFBlHMkJ/ZweP9j7NnzCpPTk5Qtf8vgYon83Q/wz997iJ3UF1O7Gw6PgxZsVeLuNI4mcZEiysWQUbUp7zzkY1qV5wZx7ChNZ4L4X36ZD1+5iStqXVgvScQTbNh4Bes2XEtX73q/v74+UX4S/UKUySWPcnpoF0PDJ8gVgpv6M5Vh+mv/wA9f3M0YFQGo7hxUKyzI4zCeqzIPkRThVvCAwR+vs5U91Joeq4JzaoaVLcSjL3LwopWYm9ZykZ8zS1qWxfT0GU6e2M3czAlMw6KrewmmqWhB+FYhNBUCQTE7xtjQq+zf8zMOHdzJ1Mw0pXJw5e3oJCf+8Bv8/d5jTKNOfL3ecHjsx7nUOJZJGzlC85hJoD1Ujz1Wh2mchCfcD1cAAA9KSURBVBn/4Rau+vSHuSUeC25aVNM0WbP2Utauu5KBZZuIxbqCyooGAEEpd4bJM4cYGdrP1Mw0IgRFrCUoP/UaT/7FD3imVKKMfWFVJdCt4lGrtBW5oUeLaQUB1oLqrwg7Elg74Tdex5o//DQf6+um/8LL6y+mabJ65VpWr93M0pWbiSXcDmdqhUfLP4Qokp07xeSZo5wePcJs0sVSjx4yl2byW/dy35PbGcK9yLoVVi3YjW1FllYpJbTAuhdKzwXWTvia5fT8yW9zyxUbufzCyxsUBsuWrmHlmk0sW76Rnv51lQ5ckSR8j3oxP8vs9EkmJk5wZuw4+Xwu6CzVZNcRXvvK3Tw8NUceb4W3nQXarWBHmvA9le6QFauoCqpK0fVaeJvFGYD52U9w3cffw03xePhW6kokEqxatZEVKy+mf3A9XT0rqPxLGjuUSxmSs8NMT55kfOw4yaTahe9VM5dm8gcP89D9v+AwjYXMaXgUBDrsgh3ppucFWkWAQQusyjCnaWWF97x0121m+f/7m3xk1VJWV1/kMNHZ2cXKlRexbPkGBgbX09mzMsIesnryuWlSs6eZmRpicmKIueRU0FmyhSUoP/8Gz/zV/+HpVIYi8oIbpEC3skcdeVpJgEELrFfNyW7PcSrAZ9Mm4sR+95Ncf8sNvDsRJxJdlOOxOMuWrWVw2ToGBtfSO7CGRKI9ZuIqFlNkkhMk504zNzPG1NQouVw66Gw5ZnicY9+6j4e272Wc5j2VG8VrgfbWRkvQagIM4RfUMAqsl56tE/G9YLt8AwO//+u8f/OGML0btk9XVz+DS1cxsGQ1ff0r6O1bSUf3EoyIPnpClMlnZ8hmJsmkJpiZGWN6aiySYruYiVlG732cx378JIewJ7B203gpxEGIsV9i2yhNyxDNUqA5WmC9FV6n4iolwoBx281c8e/ex3u9nkvaD8xYnL6+pfT2LqW3d5Du3kG6e5bQ2dVPR0c/hhns6+9SuUQxnySfmyOfmyOXnSOTniI5N0EyOYMQLfH6DYC5DFMPP8sTf/8QuyyrYScgL0TYbZxdoQxCoL32qFuKVhVgiE5P4jB2iPLSs3Utxh1xYr/9Ma774Lu4saeLlm3b7ezopqunn57uARIdPcQ7ukgkukkkKp+xji7iZgLDjGPGYphmB/UmMxHCwrJKlIv5yuf8vhBFioU0hXyWfCFHIZcml8+SSc9RLEbbm7VDOsfcU6/yzLf/hVdyBUo4F10nAuyVSHshuipFVLVAtxytLMAQXq/Wa4GV6oncJF6JmMpsS3rp+N1P8o53X8cNHQmqV5LXaOoyl2byiZd55rvb2LFIeGU3u8IdBk9ZVqCDeifdkrS6AEMwXm1YBdYLz9ZPEWbx8fqV9Hzm13j7DVdzfVcH3Wg0dRifZujxF3n+B4+ye9EsVn4Jr5P0QXvKYRTjlqUdBBjkBTUsQ3r88GxVCaodO0jYP3vukl46fusjvPm9b+Ud/b0sQaMBLIvS/hPsfuAXvPDzVxhCjej6Idhh9pT9FuOWpl0EGMIjsF54r1H3bGUE+myajjixT3+Yrb/6Nt6+ehlr0bQl6SyzL+/h5R88wiunxkjNB0dFfO2mDaunrFKMW552EmAIVmC9Elc/PFsvxLj6esikvyDul9/Mml/7Za7feilX6/fErU/ZonjkFPueeJXX7n+KQ5blSiRxcY4KwXV7rowIh0mIa4W3Be0mwBAugVUhrqHvNOVgq3d9mqWpG7a0n87b3sfWX7qGa9atYuOiOE3EsQTW8BmO7tjP7h89zs7xKbLYE9Jm8UFuqt8rh6E526lwtw3tXBiFvUOUl55tUEKMgrR2wy843rKRwU+8l2uuv4prlvazEk3ksATWyDhHtu9n9/1PsWf4DGnsi2ujuKAFOqxDoNwIqFuBbjvaWYAhGOG1K4B+d5pyY6v6N1QtyPXiq8NrpaPR/q9cz7qb38pVV17ClcsGtBiHmVKZwslRDu04yL5tz7JvePys6II94awXrlpwG9mRaZJWYTPsnnJb0u4CDO7EKIyebViblxv9xnbS1IqrDnNyfMH+tZtZdssNXLX1UjavWcHGmEkMTaCkM0wfHeXQy3vY99CzHJpfFAEaC171sawwqxboIITXyTlBiXTbogX4HH6Jq1+erdeCjOJz6sXVCq8Oa3TcbP+8sI44sXdex5p3Xc1lWy7msvUrudg0tCB7TTrH7NFhDuw8xKGnX+XYsVGSXCh+i/ftCnCtsGai2iguCKGW9Z797IHtJK7t0QJ8PjKC1qpDgbwQ5nppaoXbCUPBfs3PSy+i/33v4PKrLuaSjWvZNNDDMjTSFEvkxyY5eXSYoy/u4fCTr3KqVLpgCEqz/WZxTkXZrojaSROWLYjJQuyk0aAFuB5eiqvvcygr3mr9Pm7S1ourDpc5rrXfKKxemrPhWzYy+CvXc8mbLuGSi1azabCP5VXpNDXI5pkbPsPxI6c4tn0fx5/dycgiwYXGgro4zIkgqxJlp6LrJG0YRNfNuW5FWLMIXXA0RrX4eiGmMraQONeujUbxteKqw5wcN9tvFNYsrmb6NcvouvEtbHjTJjZsXM2G1Su4qLuDPtqYfJHMmWmGRycYOnyKoZf3cWr3YaaoLarVn83CZAW4+thtuBeCa9eOFx26nNp1KsCaGmgBbo6XIhgWr1aFSDdKVy+uVnh1WKNjt/vVn43icBq39VKWXrOZNZetZ836FaxdMciaJf2saLV3yZagnEwzNT3H2PgUY4eGGdq+n6Hdh84TWxbtNxPaRnFeCbJb8W0U55VAe7V51alLi28TtADbx2sx9VuM7fxPbs6rF18r3E4YDuPqpa+OtxO3+NNN2Nnj7g5ib9vKqkvWsfyilaxYuZQVy5ewfKCPlb1d4Z2/2hKUszlmUxlmZtNMj00yfmqc8X3HOf3GQSayeUqLktcT1UZxTsTYKxGuPpYV32bxQQq1Cu/Zrg1NE7QAOydsQhqUMDdKVyvOTpiT42b7jcLsxC3+dBNW67jW82b09xK/bD1LLlrNwLoVDC4fYKC/j/7eLnq6O+jp6qKnq4PuzgQ9HQl64jG5qTUtgVUqkc8XSWdyzGULpDM5MqkMqVSW9FyK1IlRJg4PMXVkmLli8bzl4BqJqt0wGRGuFeanANcLtyugdtKEebMjvhqbaAF2T1SF2E7e7aatF2833Mmx2/3qT7uiKyu+jYS41nGzcABME2P18srSi3ETY8UgXY3SL1AsYk0myU/NkM2fL6gLVBecjY69EuGFT9UivHhfRoBrhdkR1WbxYRZp3dTsIVqA5XEjgqrE2e33O7XRKE29uFrh1WGNju3E1UtfHW8nrtan3bhG+3aOm4XbSeukAKyXNuwiXCvOC0G2m6aZWDaK80Js3dqSbZbWuEQLsDpUCKoXm5O8NUtbL75WeHVYszSN0jfbdxpm59NuXKN9O8f1wpzE16NZ4VgrXlaEF+/7JcK1wpyKrtNjGfFtFOelQKveNJJoAVZPGIXV6XmN0tSKsxPm5NjtfvWnW/FtJMJu9msd1wuzE+eGRgWmUyH2U4QXPlWL8OJ91QLsNFyV4Mqcq4U3ALQAe4tfYuxWnBulqxdXK9xOWKPjevvNRNUL0Q1afL1+JusVoH6IcK0wWRGuFeeHIKsSZafiaTedFt0IoAXYH4IQV7vpG8XXi6sOr5WuURq7cbX2nYa5+WwWZnffznGzcK+wK8RhE+GFTzdhTkS3UZwqUVYpzF6JtMZDtAD7i6yYyohyszT14u3kW+bYyb7TMDefzcLs7ts5rhfmJk0t7BSgtdK0qwgv3ldx7DbciYjaTefUlsYHtAAHh0px9UpovRBgFfuNwmQ+3YTVOrYrtI2eP9XPZqNC1Y4IV4eFWYRrxQUhyKpF2Y3oOk2r8REtwOHAicDaFeVGaerF1Qq3E9bo2G5crX2nYTKfbsJqHTeKaxRmJ04FskJcT2DrxfkhwgufbsKciG6jOCcCXCusmVg2inMruFp0A0YLcLhwIrAyQisjtl4KbtTEt5nYOhFfv5/FeoWvFuH6+yqOnYqyHVFtFl8rrSYEaAEOL3aFtFka2XCZYxX7jcJUftbbVyW+ssLr9Fm1W8jaFWInx2EU4VpxQQiyUwGuF25XeKvzrgkRWoCjgV0hrhfvJLw6zMmx3bha+07DVH42C2u03yzOSZiTeKc0K4BrxTcLcyrCi/e9Et/qTyci3CxehSDbTeNWlLXoRggtwNGjmRDXi6sVbies0bHduGb7TsPspml2Xr00bvbtHDcLbxangkaFshsRrj6OogjXCvNKkN2msSO+i/8fTQTQAhx9vBRbrwTXS9ENs/gGKbzVyApxECJcL06lGKsWZDfHTgVYE1G0ALcWXnq7KsXYaZibNLiIc7Nv57heWKNwt+kWsFsw10sXNRFe+FQtws3ivRBkO2GaFkALcGujUoDtxjXbdxpmJ67Wp9M4N/tujpuFO01jBzsFtl0hDlKEG8U5FWMvvWNZQa6XRtNiaAFuL5wIsN04t/uNwtykWfzpNE52v9axkzAn8bI0K8zteL61wtwK7+J9v0W4URqV+04FWQtum6AFuL3xSozdxDuJa/TpNM5OfKP0do7dhnuNXa+3XnhURHjhU5UIN4t36wVr2gwtwJrFqPZ+nYbZibPzaTfOTryTuFrH9cIahdfDbnqnBboTIXYrwvXioiTCtcJkBFnT5mgB1jRCRnz9Fl0vxNep2Mp6wm7TNcNOge+VCFcf2xXcWvGy4rvw6TaNzL5GcwFagDVOCVNzc1Di66XX6/Uz2UwMVAlx2EV44VOVCFeHaTRN0QKsUYHqJmg3n07j3OzbOXYSZifOSxqJhR3BrRXWbiKs0bhGC7DGK/zweMMmvn4Ib7Nz3IiCrBDLNkHX2/dThBc+m6XRaJShBVjjN6rF167Qhkl8w/gOuFG6dhNhjcYXtABrwkQUxNeO0MoIb9DvgBulaSay1WF+iHCtMC2ymkigBVgTFYIQX7+83qi8A64X7pX3u3hfxjvWaEKJFmBNqxBW8fVSeBfOlxUbrztjVR+rFGGNJrJoAda0G0G//20WJ5O2Fk6EKmydsTSalkYLsEZTH9Veb6u9A7YTpgVVo6mDFmCNxnuaPWdhfAdsJ16j0Wg0Go1Go9FoNBqNRqPRaDQajUaj0Wg0Go1Go9FoNBqNRqPRaDQajUaj0Wg0Go1Go9FoNBqNRqPRaDQajUaj0Wg0Go1Go9FoNM35/wFFLa055C1hqwAAAABJRU5ErkJggg==;" vertex="1" parent="DrfM2PfAgeh7stGyztKA-5">
          <mxGeometry x="50" y="30" width="100" height="100" as="geometry" />
        </mxCell>
        <mxCell id="DrfM2PfAgeh7stGyztKA-3" value="" style="shape=image;verticalLabelPosition=bottom;labelBackgroundColor=default;verticalAlign=top;aspect=fixed;imageAspect=0;image=data:image/png,iVBORw0KGgoAAAANSUhEUgAAAMkAAABqCAYAAAAWTnVFAAAAAXNSR0IArs4c6QAAAARnQU1BAACxjwv8YQUAAAAJcEhZcwAAEnQAABJ0Ad5mH3gAAA25SURBVHhe7Z1LjBTHGcdrHjtLiIQPCcnF4AuR7Ni+wF4MsSU7By/OwTaWDFIAxweMD5EWKw8pkEsiQMobKYcYfMJGsolkJzkk4ENsiwRyYbkYgyXIwWwuDubglWJ7dueR+n/TPVtT09OP6uru6p7vJ5V2pmd3tnum/13fV9+ja1/84rt94SI172fV4OMqF/K46t5DhmEmwCJhmAhYJAwTAYuEYSJgkTBMBCwShomARcIwEVQmTlK7a6MQG77qPfNofyb6//3Ie+IIHCcpF/K4yiWS2fWivuk+UfvaPaL+9XtEbcNG+Xiz92I4/eVPRP/T26J367p8fFv0lz6k57nDIikXZRAJRFH/xjb585uxBREXCAei6d24LHo3F72tGcMiKReuigSmU2PucSmOOTlbaCZUVkjTrHtjUXQXz2drorFIyoVrIqlvvk80duyi2aNIekvXRffiW/TTOiyScuGKSFwRhw7Msc47Z8gcswaLpFwULhLpiDe/vU80HnjY2+AmmFE6507ZcfRZJOWiSJE05uZFU84eEIo1lu+I7tUL9JBWwTbdS49t0ZEmWPfSW94zQ1gk5UIeV/7BRCmKmadfEs3H9toViARX+s7FN2lk4U9A1K3njg9iMszUkKtI4Hu0nj9OS7plBcvQreeO0cobMx3kJpLGg4+ImT1H8lvSzRLMhk8dEo3t0lxkKk8uIoFAmjtf8J5VB5hfzZ0HvWdMVclcJM0nDpZGIN1Lf6KRBKzMsVCqTaYiae54xvnlXRXf6U8KC6XaZCYSmFiNHU97z6oPC6W6ZCISrPxU0QeJAkJB/IepFtZFghjCzBPTJxCf5qN7nUuvYdJhXSQIFKYNEq6+cYxG74N/eFuyo/PumeH/8/Gf4zUTbHwGjDtYFQnysGzUfFCNx9J10f/0E29LdvQ//oj+lxqh95/jNSO8rAKmGlgTCaoFG9se954xMLkaDzziPXOXGuW4rQ1mHGsJjq3vHbdWOdj+5V65Z94S8vb4K2QoyV154yg9jvu3ZNYps4gKTnRkCRjT/ky0Tx6in0NSJgLSPu2Ot0+rZ4OPjYratu8SjS3bAs3CrjRze1cvTPxcWnt+Kmp3hySPyuPF33ZvXg41mWd/MGrOtn8jv/cAmtvld/nQ2nfZ/4/8ns8Ovmf6PJ4N/zyoAhX7c8WgoM5WgiNWdFILZPnOoO5cjsogT0CI1SUa2+ZF68DvROP+hyf6TXgNQjROu5HvW5cCnJk/KP/XCbIyigSpUDim1r5jYubJ5P5iepHQiZA+h6n7/gWx8vpRGj4I7LV/tZdGWYEJ6krWMK7IWH2LS1OKJG3sBycoTs76FjcSQiHe1v7jiYSSWiTNuZ2JlTlt2LiIhAGzKmj0FNMCsasg87N388owHSfINMIVOMq3wt91/yXfA+PK22QV6MzMv0DdbfJguC9y0DGtfO69MgDCpRklJqlFUn+wPGknRVGXJ1qWswns7aCh+kJjM4g8cVZePSJW//xb0bn0Jo3VcydpW//2Le+XBkSZXSh089+j8+5rov3KguicP+W96gGLI6es6eG+4JjOnxTtUwtjFwD4MnFnt1QiQepJJVLfcyDr2SQMnBD69wRBBDmx2IbXVPC3Setnuh9I4bw36pjjYlGI1SEvFhALHH6VxtZ4q7HpRCKdQCYesIWzQl/GpaHMXOhZpoKZIqy5BYQCM0wFQksK2jPppo6+LyqNh3YFjtCVtAR0sD8KcY/JWCT4Emw3i6s08gqaVTVja/eRsdG4f82P0FeX4iyD6r9TN1yhSvI+tFAQMEwEGkRv6Zr3aI04fpKxSDiRLzlFBRdr60ZNnDwyGZxEjVd51O6KdheMRVLmOvWiqG/ZWohN3v9i9OQoOm5RGAGffZwLhpFIyNRih92I+ubJNrkp7V/vHRtY2fHRTZ44ZrJ+EUQ+XWLkSan7E+qytA4i7kEDS7k2CPKH0Dw9CiORoOsJY4Yt+zoJSA9RwQUuzPSj1bCNo0IKsuejaG7b6T1aw+R9bAH/RqX379HFiUmYiaSALzoMPxjmN6YDvVvXhttdoojPDjOJHvuYVPeCbTNPaYG25TuDuEsCGlvnhZpvBShWEeAXZA2cc+R36cJXz5cwzMwtx2YSvzZ9RCTySzWtWc8S/YuyQeASsByqDa7HPvAa8rPQbA+iQPoJPZbbdNt99dzL3qNg6nJW8pdrcTLOfv9UYPCyk7b7ZUz8fcE+YH+Qq6ZfEDCL9LQZdhJmImF/JBW2Z5OgJWAMdbkVs8lYFFwC0SKGg/STIAGj8CxqFsHfjizX6g6yFAgi+3Hsfxv4+4LZLOizxqwaJXyVxCLJyh9B04jZH5+h4YMM2tkfyW1yVIp1X/Ye5AtmWuR06QG+QHBi/+XEICCYApyQSGtPaq5lBXLLKM0+gdmXfCaZLeYLrhL1jcUtweJkbZ9cGJQmByQiYhv8uJXTh41vOUERfel/QGQrrx4eW13LG6SjkDheeYlyy5L6RYmLrqiYKeNWQUmLrqJS6cNmokyLriaAlA+YH66AuElNmkiprvYpi8mcxVbRFZMMPQJeNLjSu2IOuQiLhGEiSCySOLkuDFMlDETiRimqLWiNH8uFcvj4z/EawyQWiZX7BjoE9fDFLRSUoij/eZmafTPZYSCSKU2zZqYWdtwZJgIWSQHo9R2M2yQWSVg9ABOPoiPQTDKSzyTt/3kPGFPySvRj7GDUC1hNQsyCPNNSVPz3yTqhkhrHWYxwo4CqOT96TxhKLDx92Hs2DqXc7J6ccoO/x0pm98Zl0bu5KD+cURNx9oejn9HqH+0ekzMYp6UEJcYxsbF9MlE/Kw2kvaeJafkp9DNencnU1sVLjESCqr8qMixWyhBcoW0CIUyqT7HVFw31Q1StqNeJTAlmIqloMlxrzxEaWWJ9Fglpepe0Id6wDFoOvdsh1cUn7RsmRYVZzq8UxCisi2MKDGeSaookD2yLZKyhg1JQhRN70iwThNpDF/d50bs4JukbBkHMHjhBt1/wKwUx8BzbXekyHwcjkVBqCvslRtg0VakORC25RcGU1twgTUM806VqmHkQxMQZQ26fefJQIgEXiZnjLsGqB5MMujJb7BaiCwCtg3SRpOlBbJrx3ZSziIp/awbdhGs+us975DbmIrmcrvZ5GjEth52ELgAIhK7+6iwPvyCmL6F2WkH3FH3VLPaFUZlBcCs2dHQnE+7s0ZGFC1qBy+meJWkwFglMLtsrNZVG+gr6VT4NOPFHutZIYfjmkd6MTm2eHYbaaQUdUEYw3H/sY1P6IbW7B6YVat7V7oxlCKwaiwTwbBIf27MI3RRUQRXGuMmVsgexFCDdsDWmqUh3u1Kg+xVK4aEfF+4wFRTXcZl0InlffhnswMeic9FiYzaYUAGmls+YySVJvHwrgaWArirt0z9J5MSjI4kuFMLbb7rh6P7yBChTiQSQUJhQ4LjaLFajE16bGVr7j1GqiD/Ehq94rwyIE1jUm24jrYX6bhksNkAo1MLnvTODnrtary/4IxBLGUgtks7lc2MfADOK1VlEYhJjSJumEhc44vA/yAeR/gjiQmif1P79AerDNRLHwT6VYDZJLRJcZTr/dKvfrkt0F9+2OotQGgp8DAPiOvBpQOxDXQBQ75uO3rv6Z4F+X66TXiQSOPC80hWAvGrabtg9FveQvod6W2p1jN1xNoeafVpAUGcLOZtQ5B2Nq+GHqMFP+XtlqE+yIhLQ+ftr3iPGhz4Ti8FDEBRAhEkTNPQu7jhhMzdv5PFSB3vVBIfDjviLKhCJqb+TN9ZEgnwumBbMgP7Sh1bjIgCm1tiJFvI/gmJZzRzumAyzigKHWoR9CGbY86cowFgGjIquwmg9r02pBhRVdGUNeRK0X14Ivkqm6JlLIlEDiBLMGGHof9OX+0TLubi6a7NK1Hup6HlXvdvyPYOO1/s/cOjpfy9L4ZbAxBoivy/rIsGXAqGI1pe8Lckpu0jCmnCnEYnTVPi4rJlbPpjiV/+q3VVpikAtRpIrMuM+1kUCkILROTd+V6Wqg9Uk124/x6QnE5EAROK7F/O5qSfuIYLRfGwt9RqrQP72PKCb1vxtemfQKpOZSACuqr2ro2v1WQAnkobiiFLQzdueNSyQapOpSABOniqbXiyQ6pO5SABMryoKBXEhFkj1yUUkAELB0uhIJHYCDdz2YPsuUdt0r7fFMRAMk6LvvMNZBtNAbiIBiMq3/7BA0egw/PuD5OFPJAUR7JXXj1qPpjPuYj2YGJfG3LxofuuZVEFHHdRT+/UtuN+8bZEhBkKlAWnyjTiYWC7kcRUmEmJ2vZj5zovGqd95gZkPSXtWUt5ZJOWicJF44KqPFBTnfJDlO7SMbdW0YpGUC1dE4uOKWPwM3kz8DhZJuXBNJD4IBMJnoVpurVY7M1Y+H6TToIAsyyxVFkm5cFUkhPeho78URc7lLJM2BX8MaU71lq6J7o1F6y1/JsIiKRdlEMkI0tHH7OKnnIh16+MLRwoCjjcydNWfucMiKRelE0kI1DxaikhlWGDkEiySclElkZQGPq5yIY8r14g7w5QRFgnDRMAiYZgIWCQMEwGLhGEiYJEwTAQsEoaJgEXCMBGwSBgmAhYJw0TAImGYCFgkDBNB7eOfPTue4IgtasKa/nwSVUtyq9Lx8LFEMPlNa7d/vjs4C3i4VT6o+W8QoZYqfRGgSsfDx2KIEP8Hq0sST2EQCIUAAAAASUVORK5CYII=;" vertex="1" parent="DrfM2PfAgeh7stGyztKA-5">
          <mxGeometry x="27.939999999999998" y="270" width="144.11" height="76" as="geometry" />
        </mxCell>
        <mxCell id="DrfM2PfAgeh7stGyztKA-7" value="" style="shape=image;imageAspect=0;aspect=fixed;verticalLabelPosition=bottom;verticalAlign=top;image=data:image/png,/9j/4AAQSkZJRgABAgAAAQABAAD/2wBDAA0JCgsKCA0LCgsODg0PEyAVExISEyccHhcgLikxMC4pLSwzOko+MzZGNywtQFdBRkxOUlNSMj5aYVpQYEpRUk//2wBDAQ4ODhMREyYVFSZPNS01T09PT09PT09PT09PT09PT09PT09PT09PT09PT09PT09PT09PT09PT09PT09PT09PT0//wAARCAEsASwDASIAAhEBAxEB/8QAHwAAAQUBAQEBAQEAAAAAAAAAAAECAwQFBgcICQoL/8QAtRAAAgEDAwIEAwUFBAQAAAF9AQIDAAQRBRIhMUEGE1FhByJxFDKBkaEII0KxwRVS0fAkM2JyggkKFhcYGRolJicoKSo0NTY3ODk6Q0RFRkdISUpTVFVWV1hZWmNkZWZnaGlqc3R1dnd4eXqDhIWGh4iJipKTlJWWl5iZmqKjpKWmp6ipqrKztLW2t7i5usLDxMXGx8jJytLT1NXW19jZ2uHi4+Tl5ufo6erx8vP09fb3+Pn6/8QAHwEAAwEBAQEBAQEBAQAAAAAAAAECAwQFBgcICQoL/8QAtREAAgECBAQDBAcFBAQAAQJ3AAECAxEEBSExBhJBUQdhcRMiMoEIFEKRobHBCSMzUvAVYnLRChYkNOEl8RcYGRomJygpKjU2Nzg5OkNERUZHSElKU1RVVldYWVpjZGVmZ2hpanN0dXZ3eHl6goOEhYaHiImKkpOUlZaXmJmaoqOkpaanqKmqsrO0tba3uLm6wsPExcbHyMnK0tPU1dbX2Nna4uPk5ebn6Onq8vP09fb3+Pn6/9oADAMBAAIRAxEAPwD0miiigAooooAKKKKACiiigAooooAKKKKACiiigAopdppdnvQA2in7BRtFADKKftHpRtHpQAyin7RSbPegBtFLsNIQRQAUUUUAFFFFABRRRQAUUUUAFFFFABRRRQAUUUUAFFFFABRRRQAUUUUAFFFFABRRQATQAUoUmnBQKWgBAo70uMUtISB1NAC0VSuNUsrbIknXI7A5NZk/ieFciCBn92OKylWhHdmsKFSeyOgorkZfEt43+rSNPwzVZ9d1Fuk+36KKyeLpo3WBqvc7aiuFOr6gf+Xp/wBKUaxqI6XT/iBU/XIdivqFTujuqK4pNf1Fesob6qKtReJ7hf8AWwo49jiqWLpsmWCqrY6uisS38S2khAlR4j+YrTgvba5H7mZH9gea2jVhLZnPOlOHxInKg00p6U6lrQzIulFSEZppX0oAbRRRQAUUUUAFFFFABRRRQAUUUUAFFFFABRRRQAUUUUAFFFPVcdaAEC+tOpaSgBaZJIkSF5GCqOpJrL1PXILMGOLEs3oOg+tcveX9zevunkJHZR0Fc1XExhotWddHCTqavRHQ33iSGPKWi+Y3948CsG61S8u8+bM20/wrwKp0VwTrznuz0qeGp09kFFFFYm4UUUUDCiiigAooooAKVWZSCpII7ikopiNO0129tiAz+ag7P/jW/Y67aXWFc+VIezdPzrjaK3p4icPM5quEpz6WZ6OCCMilriNP1m5siFLeZF/dY/yrq7DUre+jzE+G7oeorvpV41PU8ythp0vQtFQaYRipaQ81uc5HRSsuKSgAooooAKKKKACiiigAooooAKKKKACiinqMUACrinUUySRIo2kkYKqjJJoAV3WNC7sAoGSTXL6vrzTbobMlU6F+5+lVtY1eS+cxxErADwP731rKrzq+Jb92B6uGwiXvT3A88miiiuI7wooooGFFFOWOR/uIzfQZp2FdIbRVhNPvH+7bSn/gNTLo+oN0tn/HiqVOT6EOrBbso0VoDRNRP/Lsf++h/jQdE1Ef8ux/MU/ZT7C9tT/mRn0VcbSb9etrJ+AzUT2V0n37eQf8BNJwkt0UqkHsyCilZWU4ZSD7ikqbFXCiiikMKdFLJDIJInKsOhFNopp2E1fRnW6RriXW2C5wk3ZuzVtV5wDg5FdLoetlytrdt83RHPf2Nd9DE392Z5eJwlvegdFTGXFPoruPPI6KVhg0lABRRRQAUUUUAFFFFABRRQBk0AOUd6fSUtACEhQSTgCuP13VjeSmGFsQKe38Rq/4k1PYPscDfMf9YR6elczXn4qv9iJ6eDw//LyQUUAFiAoJJ7Ctay0C7ucNLiFD/e6/lXJCEpuyR3TqRgryZk1Pb2V1cnEMDt744/OuutNDsrYAmPzX/vPz+laKqqjCgADsK64YN/aZw1MevsI5W38M3L4M8iRj0HJrSg8N2ceDIXkPucVtUV0xw1OPQ5J4qrLqU4tMsYvuW0f1K5q0qIowqgfQU6itlFLZGLlJ7sTFFLRTJEopaKAEowPSlooAjeGKQYeNGHuM1Um0ewl626KfVeKv0VLhF7opTlHZmDP4Yt2yYJnQ+h5FZlz4evYcmMLKP9k812NFYyw1OXQ6IYurHrc86lglhbbLG6H0YYpleiSwxTLtljVx6EZrIvPDlrLlrcmFvTqK5p4OS+F3Ounj4vSasclQODkVevdJu7LJkj3J/fXkVRrklFxdmdsZxmrpnVeH9W89Ra3DfvFHysf4hW9XnCO0bh0JDKcgiu20bUFv7QEn96nDj+tehhq/MuWW55eMw/I+eOxoEZFRkYNS01hnmuw4RlFFFABRRRQAUUUUAFPUYFNUZNSUAFU9UvVsbN5T97oo9TVuuP1+7a91AQQ5ZYztAHc96xr1OSOm5vh6XtJ2exlSO0kjO5yzHJNaGnaNc3xDEeXF/ePf6Vq6ToCxhZr0Bm6iPsPrXQAADAGAK5aWFb96Z2V8Yo+7TKVhpdrYr+7TL93bk1dpaK7oxUVZHnSk5O7CiiiqJCiiigAooooAKKKKACiiigAooooAKKKKACiiigAooooAQgEYIrI1DQba6y8P7qT26H8K2KKicIzVmi4VJQd4s4C9sbiyk2zoQOzdjTtLvWsbxJR93ow9RXcTwRXERjmQOp7EVyur6HJaZmtsvD3Hda4KmHlTfNA9Klio1VyTOsjdZI1dCCrDINOrB8L3vmQtayH5o+Vz6Vv1305qcVI86rTdObiyNhg0lPYZFMqzMKKKKACiiigB6DjNOpBwKWgCrqMzQWbmMEyN8qAdyaqaRpCWa+bNh7hup9K0yqkgkAkdPanVDgnLmZoqjUeVdQoooqzMKKKKACiiigAooooAKKKKACiiigAooooAKKKKACiiigAooooAKKKKACiiigApCARg9KWigDBvNNNjepqFmPlU5kQenfFbisGUMDkEZFKeeDQqhVCqMAdBURgot2NJ1HNK/QKjIwalpjjvVmY2iiigApVHNJTkoAfRRUF5P9lsp7jbu8qNnx64GaAJ6K43SfHI1HU4LMWJTzW27t+cV2VABRXPeJvEo0CSBTbGbzQT97GMVZ8N62NdsXuRD5OyQpjOewP9aANiiiqOs6h/ZelzXpj8zyhnbnGaAL1Fcr4f8YDWtTFmLMxZUtu356V1VABRXMeJPFg0K/S2NoZdyB927Hc/4VfXxDZx6FDql23kpKuQnUk+g9aANiivPbz4iy+YRZWKBOxkbk/gKWy+Ir+YBfWS7D1aI8j8DQB6DRVTTtQtdTtVubOUSRn8wfQinajcPaWE1zFF5rRKW2ZxnFAFmiuM0zx7Fe6jBayWZiWVtu/fnB7V2dABRRXN+JfFcehXcVt9n853Te3zY2jtQB0lRXLtHbSyL95UJH5VneHdXfW7BrtrbyE3bV+bOcd65/XPGwtLy70/7EW2Ex79/t1oAwNL8QatqHiOyS5vZDGZ1BRTtXGfQV6rXhum3n2HU7e82b/JkD7c4zg12v8AwsZf+gcf+/n/ANagDvaKraddfbtPgutmzzUDbc5xmpZ5oreF5p3VI0GWZjwBQBJRXD6n8QoIpDHp1sZgON7nAP0FZ8fxEvg/72ygZfQEg0AekUVhaB4osdb/AHceYrgDJifv9D3rdoAKKyvEOr/2Jpv2zyfNG8LtzjrVTQPE8OrWdzdTRi2jt8bizZ4oA6Cmt0rg9R+IZWYpp1orRg8PKTz+ArsdIu3v9JtruRQrTRhiB0FAFiiiigAp6dKZT1+7QA6qWs/8gW+/693/APQTV2qWs/8AIFvv+vd//QTQB5P4T/5Gex/6617LXjXhP/kZ7H/rrXstAHnvxO/19j/ut/MVpfDX/kBT/wDXwf8A0EVm/E7/AF9j/ut/MVpfDX/kBT/9fB/9BFAHYVh+Mv8AkV7z/dH863Kw/GX/ACK95/uj+dAHC/D3/kZk/wCuTV6tXlPw9/5GZP8Ark1erUAeZ/Eof8Tm3PrD/U1R8P6Zd+JriG3mlZbO0TaSOwz0Huav/Ev/AJDFt/1x/rXQ/DuFI/DnmKPmllYsfpxQBp2vhrRraERrp8L8ctIoYn8TWF4m8F2stpJc6VH5M6Dd5a/dcf0NdpSUAeQ+EtYk0jWI1diLeZgkqnoPf8K9eIDLg4IIrxjxJbrZ+I72KMYVZSwx2zz/AFr1zSZTPpNpKxyXhUn8qAPI/EFg2j69NAmVVX3xn2PIr1jQr9dS0e2uweXQbvZhwf1rl/iTpnmWsOpIvzRHy3Psen6/zqP4aajmO506Rvu/vI/6/wBKAO7PAzXjWv3b6x4jneP5t8nlx+4HAr0/xTf/ANnaBdTg4crsT6niuA8Bad9u19Z3XMdsPMP+92/z7UAek6RZLp2l29og/wBUgB9z3P51S1Pw/pM6XN1LZRtMysxck5Jx1raqC9/48Z/+ubfyoA8a0OCK416zgmQPE8yqynuM16n/AMIroX/QOi/M/wCNeYeHP+RmsP8Ar4X+de0UARwQx28KQwoEjQYVR2FecePdbku9R/sy3YiGE4cKfvt/9avSJX8uF3/uqTXiUd4E1oXtwnmgT+ay5xu5zigD0Xwv4StLKzjuL+FJrpxuIcZCe2K3LvR9NvITFPZQlSMZCAEfQ1yX/Cx4v+gY3/f3/wCtS/8ACx4/+gY//f3/AOtQBzWuafN4a18C2kYBSJIX749K9T0e/XU9Kt7xcDzUyQOx7/rXl3inxAmvywSJamAxAg5bdnP4V2nw6kZ/DZU9EmZR9MA/1oAf8QRnwy/tKtec6fLd3EB0m0BJupVJweuO30716P8AED/kWJP+ui1yvw4t1l195GGfJhLL9cgf1NAHR6b4D0yC3X7bvuJiPmOcAfQV09pbRWdrHbQLtjjXaoz0FTUUARHrRSt940lABT1+6KZT1+7QA6qWs/8AIFvv+vd//QTV2qWs/wDIFvv+veT/ANBNAHk/hP8A5Gex/wCutey1414T/wCRnsf+utey0AeffE9T5tg3baw/lV/4aODo1ymeVnyfxA/wqb4h6c93oqXESlmtn3HH909f6VyHg7X00S/dbjP2aYYcj+E9jQB63WF40YL4XvNxxkAD86n/AOEk0XyfN/tK324zjfz+XWuI8U6/L4hkNjpkbm1iBkZsfewOp9AKAK3w9/5GZP8Ark1erV5T8PjjxOn/AFzf+VerUAeafEv/AJDFt/1x/rXR/D11bwyqg5KSsD7d65z4l/8AIYtv+uP9ao+E/ED6DcYuEdrO45OOxHGRQB6zSVnW+vaRcRCSPUbYKRnDSBSPwNYHibxlaW9pJbaZKJrhxt8xD8qe+e5oA4jxJOLzxJeyRnIaUqMd8cf0r13SoTb6VawnqkSg/lXl/g7RZNW1dJpFJtoGDyMejHsK9aoAranZpqGnT2kg+WVCv0PavJNEuZNE8SxGTK+VL5co9s4Ney15f8QtN+x6yt5GuEuhk4/vDr/SgC/8S9Q3Na2CNkAea38h/WtrwFpv2LQVmdcSXR3n6dv8+9efw/aPEWu28cmS8mxDjsqjBP6V7JFGsMSRRgKiKFAHYCgB9QXv/HjP/wBc2/lU9MlTzIXQ/wASkUAeNeHP+RmsP+vhf517RXiEMj6XraSOpD204JX6GvWYPEujTW6zDUIEyM7XcBh+FAGlOnmW8iD+JSP0rxbTkhj1+CO8QGIXAWRW6Yzg17Wjq6K6HKsMgjuK8u8c6JJp+qNfQofs9wxbIH3W7igDvf8AhGtEP/MOg/Kj/hGtE/6BsH5Vz3hnxrbNax2mrP5UqDaJTyGHv6GupXWNLZdy6jaEevnL/jQBX/4RrRP+gbB+VXrOytrGHybOFIo852qOM1m3PinRbdgpvo5GY4AjO79RWyORkUAc18QP+RYk/wCui1zfwz/5DF1/1w/9mFdJ8QP+RYk/66LXN/DP/kMXX/XD/wBmFAHpVFFFAEbfepKVvvUlABT06UynJQA+s7xA4j0C/Y/8+7j8wRVyeeG3TfPKka+rtiuH8a+KbSewfTtPlExkOJHX7oHoD3oA5rwchk8UWQHZyfyBr2KvOPhxpjvfSalIpEcSlEJ7sev6fzr0egBrqroUcBlYYIPcVxOr/D+KeZpdMuBCGOfLcZA+hruKKAPN7f4d3xkH2m8gVO+wFj+uK63T/DVjp2mT2lsP3k8ZR5m5Y5FbdFAHJaB4NbRtVS9+2iQKCNuzGciutoooA80+Jf8AyGLb/rj/AFrT8M6JZa14Piiu0+ZZH2SL95eazPiX/wAhi2/64/1rpfh//wAivF/10f8AnQBz1z8OrwSH7LewsnbzAVP6Zqxp/wAOyJA2oXgZQeUiHX8TXf0UAV7GyttPtVt7SJY416Af1qxRRQAVxHxLu4BY21mQGnZ94/2QK29d8TWGjwsDIstzj5YlOT+PpXm0Md/4p175stJK2WPaNf8AAUAdN8N9K/12qSr/ANM4s/qf6V39V7CzisLKK0gGI4l2j396sUAFFFFAHK+I/BsGrXBu7aUW9w33sjKt71gR/DvUC/z3luF9Rkn+Vek0UAQ2sJt7SGEtuMaBc+uBilubeG7geC4jWSNxhlYcGpaKAOH1L4e28rs+nXRhB6I43Afj1rMHw71Pd/x922PXLf4V6XRQBwll8O0Vw17fFgDnbGuP1NdzGgjjVASQoAGetOooAy/EOlHWdLazEvlZYNuxnpWb4Y8KnQbyW4N0JvMj2Y24xyD/AErpqKACiikoAY3U0lB60UAFKnWkoBwaAMTxhotxrWnRQ2pQSJJu+Y4GMVg6b8PNrh9Tuwyj/lnEOv4mu+ooAhtLWCztkt7aNY4kGFUVNUcsyRFd5wGOAfen0BYWiiigAooooAKKKKAOV8VeFZtdvYp4rpIgibcMpOea1fDmlPo2kpZSSrKysTuUYHJrVooAKKKKACkpaKAPN7vwRqF3rtyUKxWrSFhIxzweeBXa6Hodnolt5VsuXb78h6sa06KACiiigAooooAKKKKACiiigAooooAKKKKACimyOsaF3ICgZJNCMHQOM4IyM0XAdSHpS01zxQAyiiigAooooAkU5FLTEPOKfQBXvrcXVpJCf4hwfQ1j6RrJD/Y747ZFO0Oe/sa6CuU8TWJiuRdRj5JPvY7Gueu5Q9+J1YdRnenLrsdV16UtclpOvSW2IbrLxdA3da6mCeK4jEkLhlPcVdKtGotDOtQlSepJRRRWpiFFFFABRRRQAUUUUAFFFFABRRRQAUUUUAFFFFABRRRQAUUUUAFFFFABTJZUhjMkrBVHUmq9/qFvYx7pn+bso6muQ1LVJ9Qf5jtjHRBWFWvGn6nTQw0qrv0NZr19Z1NLaHItkO5v9oD1rowMDArH8OWP2az85xiSXn6DtWzTop8vNLdk13Hm5Y7IKjY5NPJwKjrYwCiiigAooooABxUg5FR05D2oAfUF5bJd2rwSDhh+VT0UmrqzGm07o88urd7W4eGUYZTin2d7cWUm+ByPUdjXT6/pn2uDzoV/fIOg/iFcgRg4NeTVpypT0Pbo1I14anXaf4ht7gBLn91J69jWwrK6hlIIPcV5zVq01G6sz+5lO3+6eRW9PGNaTOergU9YHfUVz1p4mjbC3URQ/wB5eRWzb3ttcrmGZG9gea7IVYT2ZwTozh8SLFFJS1oZBRRRQAUUUUAFFFFABRRRQAUUUUAFFFISB1NAC0VSutVsrUHzJlLD+FTk1iXniaRsraRbB/ebk/lWU68Ibs2p4epPZHRzzxW6F5pFRfUmuf1DxJ1jsV/4Gw/kKwbi5muX3zyM59zUVcVTFylpHQ9Clgox1nqOllkmkMkrlmPUk1oaHp5vbwFh+6j5Y+vtVG2gkuZ1iiXLMcV3Wn2aWNqsKderH1NTh6TqS5nsXiqypR5Y7ssgADA6ClopCcCvUPGGue1NoooAKKKKACiiigAooooAepyKdUQODUgORQAVzXiDSCC13bLx1dR/OumpCMjBrOpTVSNma0qsqUuZHnFFdBrehlC1zZrlerIO30rn68mpTlTdme3SqxqRvEKVWZTlSQR3FJRUGhft9Zv7fAWcsvo/NaUHihxxPbg+6nFc9RWsa9SOzMZ4elLdHXxeI7F/v+ZGfdc/yq5HqthJ925T8TiuEorZYya3MJYCm9mehpcQP9yVG+jCpNwPcV5xk+tKHdejEfQ1axvdGTy/tI9GyPUUZHqK88E8w6Sv/wB9GkM0p6yv/wB9Gn9dXYX9nv8AmPQy6jqwH41E95bR/fnjH1YV5+WY9WJ/GkzSeN7IpZf3kdxJrOnx9bhT/u81Tm8TWicRRyOfpgVydFZvGTexpHA01ubk/ia5fiGJI/c8ms241K8uf9bcOR6A4H6VVorGVact2dEKFOGyCiiisjUKWNGkcIilmY4AFLFG80gjjUszcACuv0bR1slEs2GnI/75rajRdR+RhXrxpLzHaJpa2EO+QAzuPmPp7Vq0UV60IqCsjxJzc5czCo2OTTmPamVRIUUUUAFFFFABRRRQAUUUUAFKpxSUUASUtRq2KfQAVh6voKT7prQBJOpXs1btFROnGaszSnUlTd4nnMsUkMhSVCrDqCKbXeX+nW99HtmT5uzDqK5fUNEurPLoPNi/vL1H1FebVw0oarVHrUcXCpo9GZdFFFcx1BRRRQMKKKKACiiigAooooAKKKKACiilRGkYKilmPQAUxXsJViysp72UJChPq3YVrad4ckkIkvDsX+4OprpYLeK3jEcKBVHYV10sK5ay0RxV8bGOkNWU9M0qDT0yBvlI5cj+VaNFFehGKirI8qU3N3kFNZsUM2KZVEhRRRQAUUUUAFFFFABRRRQAUUUUAFFFFABSg4pKKAJAc0tRA4p4bPWgB1J9aKWgDOvdGs7zJKbHP8ScVg3fh27hyYSJl9uDXX0VjPDwnujop4mpT2Z51LDLC2JY2Q/7QxTK9FkijlXbIisPQjNZ8+hafNk+TsJ7ocVySwb+yzshj4/aRxVFdPL4XiP+quGX6jNVn8Lzj7lxGfqCKyeGqLobrGUn1MGito+Gb3/npD+Z/wAKUeGbw9ZIR+J/wqfYVOxX1ql3MSiugTwvKf8AWXKj6LmrUXhm2X/WSyP9OKpYWo+hLxlJdTlant7K5uWxDC7e+OPzrs7fSLC3wUt1J9W5/nV0KFGFAA9q3jgn9pnPPMF9lHMWfhmRiGu5Qo/uryfzretLC2s1xBEoP97qT+NWqK6oUYQ2RxVK9Sp8TCiikJArUxFprN6U0tmkoAKKKKACiiigAooooAKKKKACiiigAooooAKKKKACiiigAooooAUMRTgwNMooAkpaiBIpwf1oAfRTQwpaAFooooAKKKKACiikoAWikyPWkLCgB1ISB1phY0lADi/pTaKKACiiigAooooAKKKKACiiigAooooAKKKKACiiigAooooAKKKKACiiigAooooAKKKKACiiigAyaXcfWkooAXcfWjcfWkooAXJ9aTNFFABRRRQAUUUUAFFFFABRRRQAUUUUAFFFFABRRRQAUUUUAf/Z;" vertex="1" parent="DrfM2PfAgeh7stGyztKA-5">
          <mxGeometry x="50" y="138" width="100" height="100" as="geometry" />
        </mxCell>
      </root>
    </mxGraphModel>
  </diagram>
</mxfile>
